
<svg version="1.1" xmlns="http://www.w3.org/2000/svg" width="637" height="392" viewBox="0 0 637 392" preserveAspectRatio="xMidYMid meet">
<path d="M0 0 C2.15116543 1.14656025 4.1635525 2.36831149 6.18359375 3.73046875 C6.87324219 4.17777344 7.56289062 4.62507813 8.2734375 5.0859375 C9.96269126 6.22660192 11.58201908 7.46965465 13.18359375 8.73046875 C13.18359375 9.39046875 13.18359375 10.05046875 13.18359375 10.73046875 C13.84359375 10.73046875 14.50359375 10.73046875 15.18359375 10.73046875 C15.18359375 11.39046875 15.18359375 12.05046875 15.18359375 12.73046875 C16.66859375 13.22546875 16.66859375 13.22546875 18.18359375 13.73046875 C20.80414927 16.86023174 22.96538668 20.30767241 25.18359375 23.73046875 C25.65410156 24.43558594 26.12460938 25.14070313 26.609375 25.8671875 C31.46941896 33.76663975 34.37738332 43.81637773 34.49609375 53.10546875 C34.39296875 54.30171875 34.28984375 55.49796875 34.18359375 56.73046875 C33.85359375 57.06046875 33.52359375 57.39046875 33.18359375 57.73046875 C31.18559803 57.82920691 29.18402217 57.86018674 27.18359375 57.85546875 C26.09046875 57.85804688 24.99734375 57.860625 23.87109375 57.86328125 C22.98421875 57.81945312 22.09734375 57.775625 21.18359375 57.73046875 C20.85359375 57.40046875 20.52359375 57.07046875 20.18359375 56.73046875 C20.10225584 54.81450907 20.04425008 52.89754943 19.99609375 50.98046875 C19.34273456 41.54305824 15.38725435 32.7423181 9.578125 25.2734375 C2.29971312 17.2202927 -6.18620863 11.32278143 -16.81640625 8.85546875 C-28.34110262 6.7691013 -39.73122578 7.1107436 -50.6171875 11.984375 C-60.12695903 17.41219172 -67.21054799 24.38134385 -72.81640625 33.73046875 C-73.39390625 34.55546875 -73.97140625 35.38046875 -74.56640625 36.23046875 C-77.90016721 42.89799068 -78.17676714 50.33962167 -78.12890625 57.66796875 C-78.1247168 58.54678711 -78.12052734 59.42560547 -78.11621094 60.33105469 C-78.00767166 66.55012426 -77.38862434 72.00343617 -74.81640625 77.73046875 C-74.51476562 78.45363281 -74.213125 79.17679687 -73.90234375 79.921875 C-71.86833718 84.41157243 -69.45194308 87.34857402 -65.81640625 90.73046875 C-57.20898612 99.86322438 -49.38863064 110.25869173 -47.47412109 123.01025391 C-47.10652064 126.30276175 -46.82282663 129.59929764 -46.54492188 132.90039062 C-45.99944934 138.96938688 -45.16266194 144.49379588 -41.81640625 149.73046875 C-39.01961351 152.87310145 -35.69852503 155.1245563 -31.81640625 156.73046875 C-26.32271386 157.4054081 -20.62574502 157.47724446 -15.44140625 155.35546875 C-10.56442741 152.51056443 -8.18321176 147.69060571 -5.81640625 142.73046875 C-5.08759536 140.75226777 -4.38869453 138.75949082 -3.81640625 136.73046875 C-3.48640625 136.40046875 -3.15640625 136.07046875 -2.81640625 135.73046875 C2.91927657 135.3604247 2.91927657 135.3604247 5.18359375 135.73046875 C6.94921875 136.98046875 6.94921875 136.98046875 8.18359375 138.73046875 C8.592193 143.31388643 7.41702955 148.64246585 5.453125 152.7734375 C0.86483017 159.84647046 -5.04303912 166.31018721 -12.81640625 169.73046875 C-20.00624448 171.83752568 -29.05523947 171.57025601 -36.4296875 170.26953125 C-42.4523803 168.21771206 -48.69549043 163.59948929 -52.81640625 158.73046875 C-52.81640625 157.74046875 -52.81640625 156.75046875 -52.81640625 155.73046875 C-53.47640625 155.73046875 -54.13640625 155.73046875 -54.81640625 155.73046875 C-58.85765314 149.17059774 -59.18434491 141.79552314 -60.18945312 134.29101562 C-61.37658706 126.08041986 -63.1019233 118.21093222 -67.44506836 111.04223633 C-68.81640625 108.73046875 -68.81640625 108.73046875 -68.81640625 106.73046875 C-70.30140625 106.23546875 -70.30140625 106.23546875 -71.81640625 105.73046875 C-73.421875 104.171875 -73.421875 104.171875 -75.00390625 102.29296875 C-75.53371094 101.67550781 -76.06351563 101.05804688 -76.609375 100.421875 C-77.20685547 99.58462891 -77.20685547 99.58462891 -77.81640625 98.73046875 C-77.81640625 98.07046875 -77.81640625 97.41046875 -77.81640625 96.73046875 C-78.80640625 96.40046875 -79.79640625 96.07046875 -80.81640625 95.73046875 C-87.96507653 86.76533307 -91.80233997 75.14148738 -92.75390625 63.85546875 C-93.40418136 48.84464886 -90.88217784 35.42403835 -82.78515625 22.484375 C-77.67732607 15.15616342 -77.67732607 15.15616342 -74.69921875 13.68359375 C-74.07789063 13.3690625 -73.4565625 13.05453125 -72.81640625 12.73046875 C-72.14537875 11.39932476 -71.47908391 10.06578914 -70.81640625 8.73046875 C-50.49964031 -8.48968975 -23.83797486 -10.745273 0 0 Z " fill="#EAE7DD" transform="translate(227.81640625,114.26953125)" />
<path d="M0 0 C4.72871592 2.07120306 8.11381883 4.22549103 11.6484375 8.01953125 C11.3184375 9.66953125 10.9884375 11.31953125 10.6484375 13.01953125 C9.9884375 13.01953125 9.3284375 13.01953125 8.6484375 13.01953125 C8.4009375 13.65890625 8.1534375 14.29828125 7.8984375 14.95703125 C6.6484375 17.01953125 6.6484375 17.01953125 4.8984375 18.01953125 C2.6484375 18.01953125 2.6484375 18.01953125 -0.3515625 16.14453125 C-1.3415625 15.44328125 -2.3315625 14.74203125 -3.3515625 14.01953125 C-8.09358851 12.12272085 -13.58631669 12.63117717 -18.4765625 13.70703125 C-23.15166898 15.84131899 -26.37611628 18.5059078 -29.1640625 22.83203125 C-30.91332488 27.52741973 -31.91519139 31.52172266 -30.80859375 36.42578125 C-29.65670922 40.02761308 -28.4621727 42.85361595 -26.3515625 46.01953125 C-26.4765625 48.58203125 -26.4765625 48.58203125 -27.3515625 51.01953125 C-29.4140625 52.33203125 -29.4140625 52.33203125 -31.3515625 53.01953125 C-31.3515625 53.67953125 -31.3515625 54.33953125 -31.3515625 55.01953125 C-33.1640625 55.64453125 -33.1640625 55.64453125 -35.3515625 56.01953125 C-36.3415625 55.35953125 -37.3315625 54.69953125 -38.3515625 54.01953125 C-38.3515625 53.35953125 -38.3515625 52.69953125 -38.3515625 52.01953125 C-39.0115625 52.01953125 -39.6715625 52.01953125 -40.3515625 52.01953125 C-41.00151547 50.6047499 -41.64634972 49.18761638 -42.2890625 47.76953125 C-42.64871094 46.980625 -43.00835937 46.19171875 -43.37890625 45.37890625 C-45.96997181 39.09375125 -46.00705554 32.73833494 -45.3515625 26.01953125 C-43.26662587 18.48859636 -39.92950388 12.47351837 -34.3515625 7.01953125 C-33.6915625 7.01953125 -33.0315625 7.01953125 -32.3515625 7.01953125 C-32.3515625 6.35953125 -32.3515625 5.69953125 -32.3515625 5.01953125 C-31.12373388 4.3919067 -29.89422414 3.7675706 -28.6640625 3.14453125 C-27.97957031 2.79648438 -27.29507813 2.4484375 -26.58984375 2.08984375 C-25.85121094 1.73664063 -25.11257812 1.3834375 -24.3515625 1.01953125 C-23.59488281 0.65472656 -22.83820313 0.28992188 -22.05859375 -0.0859375 C-15.2796884 -2.32600868 -6.8152914 -1.99375075 0 0 Z " fill="#EBE8DE" transform="translate(210.3515625,138.98046875)" />
<path d="M0 0 C5.73568282 -0.37004405 5.73568282 -0.37004405 8 0 C9.765625 1.25 9.765625 1.25 11 3 C11.40859925 7.58341768 10.2334358 12.9119971 8.26953125 17.04296875 C3.68123642 24.11600171 -2.22663287 30.57971846 -10 34 C-17.18983823 36.10705693 -26.23883322 35.83978726 -33.61328125 34.5390625 C-39.63597405 32.48724331 -45.87908418 27.86902054 -50 23 C-50 22.01 -50 21.02 -50 20 C-50.66 20 -51.32 20 -52 20 C-52.66 18.02 -53.32 16.04 -54 14 C-53.05125 13.690625 -52.1025 13.38125 -51.125 13.0625 C-48.13919592 12.12605258 -48.13919592 12.12605258 -46 11 C-43.1875 11.0625 -43.1875 11.0625 -40 12 C-38.71931691 13.47278556 -37.44155612 14.95121522 -36.25390625 16.5 C-34.08484477 19.09476514 -32.21523001 19.94774291 -29 21 C-23.42709892 21.6366784 -17.89234842 21.76232792 -12.625 19.625 C-7.74802116 16.78009568 -5.36680551 11.96013696 -3 7 C-2.27118911 5.02179902 -1.57228828 3.02902207 -1 1 C-0.67 0.67 -0.34 0.34 0 0 Z " fill="#EAE8DD" transform="translate(225,250)" />
<path d="M0 0 C0.33 4.62 0.66 9.24 1 14 C3.0728125 13.6596875 3.0728125 13.6596875 5.1875 13.3125 C8.51469483 12.93642774 9.75280917 12.88715201 12.875 14.3125 C13.57625 14.869375 14.2775 15.42625 15 16 C15.99 16.66 16.98 17.32 18 18 C19.02835363 21.08506088 19.13368434 23.2694272 19.125 26.5 C19.12886719 27.93859375 19.12886719 27.93859375 19.1328125 29.40625 C19 32 19 32 18 35 C17.34 35 16.68 35 16 35 C15.67 35.99 15.34 36.98 15 38 C11.67133782 40.19204582 8.88011681 41.20796092 4.9375 41.3125 C1.43698427 41.03468129 -0.89271258 40.55364371 -4 39 C-4.66 39.66 -5.32 40.32 -6 41 C-7.32 41 -8.64 41 -10 41 C-10 29.12 -10 17.24 -10 5 C-11.32 4.67 -12.64 4.34 -14 4 C-14 3.01 -14 2.02 -14 1 C-12.04175306 0.83232136 -10.08339945 0.66588795 -8.125 0.5 C-6.48917969 0.36078125 -6.48917969 0.36078125 -4.8203125 0.21875 C-3.21670436 0.09437042 -1.60842449 0 0 0 Z M3 18 C1.515 18.99 1.515 18.99 0 20 C-0.05398987 22.27057377 -0.09278742 24.54151288 -0.125 26.8125 C-0.14820313 28.07707031 -0.17140625 29.34164062 -0.1953125 30.64453125 C-0.27581918 34.1338024 -0.27581918 34.1338024 2 37 C4.47266765 36.65555119 4.47266765 36.65555119 7 36 C8.44207941 33.11584117 8.09394887 30.58278472 8.0625 27.375 C8.05347656 26.18648437 8.04445313 24.99796875 8.03515625 23.7734375 C8.02355469 22.85820312 8.01195312 21.94296875 8 21 C6.35 20.01 4.7 19.02 3 18 Z " fill="#CCC9BB" transform="translate(390,183)" />
<path d="M0 0 C0 4.95 0 9.9 0 15 C1.32 14.34 2.64 13.68 4 13 C7.36792689 12.75943379 10.05706603 12.65949607 13.25 13.8125 C15.1070458 15.07263822 16.55532126 16.28014436 18 18 C19.07957377 21.23872132 19.13326784 23.66028205 19.125 27.0625 C19.12886719 28.65771484 19.12886719 28.65771484 19.1328125 30.28515625 C19 33 19 33 18 35 C17.34 35 16.68 35 16 35 C15.67 35.99 15.34 36.98 15 38 C11.67133782 40.19204582 8.88011681 41.20796092 4.9375 41.3125 C1.43698427 41.03468129 -0.89271258 40.55364371 -4 39 C-4.66 39.66 -5.32 40.32 -6 41 C-7.32 41 -8.64 41 -10 41 C-10 29.12 -10 17.24 -10 5 C-11.32 4.67 -12.64 4.34 -14 4 C-14 3.01 -14 2.02 -14 1 C-12.04175306 0.83232136 -10.08339945 0.66588795 -8.125 0.5 C-6.48917969 0.36078125 -6.48917969 0.36078125 -4.8203125 0.21875 C-3.21670436 0.09437042 -1.60842449 0 0 0 Z M0 20 C-0.05398987 22.27057377 -0.09278742 24.54151288 -0.125 26.8125 C-0.14820313 28.07707031 -0.17140625 29.34164062 -0.1953125 30.64453125 C-0.27581918 34.1338024 -0.27581918 34.1338024 2 37 C4.44480079 36.81171228 4.44480079 36.81171228 7 36 C9.28807756 32.45034543 9.40975282 29.3175174 9.328125 25.1953125 C9.10470056 22.7236047 9.10470056 22.7236047 7.125 19.9375 C6.42375 19.298125 5.7225 18.65875 5 18 C2.67642489 17.81509993 2.67642489 17.81509993 0 20 Z " fill="#D9D3C6" transform="translate(355,183)" />
<path d="M0 0 C1.20527344 0.00966797 2.41054688 0.01933594 3.65234375 0.02929688 C4.90660156 0.05443359 6.16085937 0.07957031 7.453125 0.10546875 C8.72285156 0.11900391 9.99257813 0.13253906 11.30078125 0.14648438 C14.43532344 0.18183635 17.56901045 0.23118627 20.703125 0.29296875 C21.198125 4.25296875 21.198125 4.25296875 21.703125 8.29296875 C22.363125 7.30296875 23.023125 6.31296875 23.703125 5.29296875 C23.3909486 2.64664588 23.3909486 2.64664588 22.703125 0.29296875 C25.343125 0.29296875 27.983125 0.29296875 30.703125 0.29296875 C30.703125 1.61296875 30.703125 2.93296875 30.703125 4.29296875 C30.043125 4.29296875 29.383125 4.29296875 28.703125 4.29296875 C27.70387251 6.77341408 26.7171998 9.25565278 25.7734375 11.7578125 C23.8721347 16.73105496 21.86360491 21.00374602 18.703125 25.29296875 C12.6484375 25.48828125 12.6484375 25.48828125 10.703125 25.29296875 C10.043125 24.63296875 9.383125 23.97296875 8.703125 23.29296875 C8.043125 23.95296875 7.383125 24.61296875 6.703125 25.29296875 C3.7937692 25.43814619 0.983179 25.47927671 -1.921875 25.41796875 C-2.72367187 25.40894531 -3.52546875 25.39992188 -4.3515625 25.390625 C-6.33346023 25.36703098 -8.31520481 25.3311594 -10.296875 25.29296875 C-10.626875 23.31296875 -10.956875 21.33296875 -11.296875 19.29296875 C-10.306875 18.96296875 -9.316875 18.63296875 -8.296875 18.29296875 C-8.44125 17.48859375 -8.585625 16.68421875 -8.734375 15.85546875 C-9.39375839 11.67937394 -9.85778853 7.49698816 -10.296875 3.29296875 C-6.90097291 0.16079097 -4.55175422 -0.06441162 0 0 Z M-2.296875 3.29296875 C-2.626875 4.94296875 -2.956875 6.59296875 -3.296875 8.29296875 C-2.306875 8.62296875 -1.316875 8.95296875 -0.296875 9.29296875 C-0.296875 7.64296875 -0.296875 5.99296875 -0.296875 4.29296875 C-0.956875 3.96296875 -1.616875 3.63296875 -2.296875 3.29296875 Z M6.703125 4.29296875 C6.703125 6.27296875 6.703125 8.25296875 6.703125 10.29296875 C3.403125 10.95296875 0.103125 11.61296875 -3.296875 12.29296875 C-3.296875 12.62296875 -3.296875 12.95296875 -3.296875 13.29296875 C2.148125 14.28296875 2.148125 14.28296875 7.703125 15.29296875 C8.363125 16.94296875 9.023125 18.59296875 9.703125 20.29296875 C12.343125 20.29296875 14.983125 20.29296875 17.703125 20.29296875 C17.98227961 17.11176932 17.72529258 15.34185618 16.390625 12.3984375 C15.83375 11.43550781 15.276875 10.47257813 14.703125 9.48046875 C14.14625 8.50464844 13.589375 7.52882812 13.015625 6.5234375 C12.5825 5.78738281 12.149375 5.05132812 11.703125 4.29296875 C10.053125 4.29296875 8.403125 4.29296875 6.703125 4.29296875 Z M-3.296875 19.29296875 C-3.626875 19.95296875 -3.956875 20.61296875 -4.296875 21.29296875 C-3.966875 21.95296875 -3.636875 22.61296875 -3.296875 23.29296875 C-1.646875 23.29296875 0.003125 23.29296875 1.703125 23.29296875 C1.703125 21.97296875 1.703125 20.65296875 1.703125 19.29296875 C0.053125 19.29296875 -1.596875 19.29296875 -3.296875 19.29296875 Z " fill="#D7D3C6" transform="translate(482.296875,244.70703125)" />
<path d="M0 0 C2.62971402 0.23906491 4.93502115 0.51170677 7.4375 1.3125 C7.1875 3.6875 7.1875 3.6875 6.4375 6.3125 C5.12346724 7.01644612 3.7854743 7.67595658 2.4375 8.3125 C-1.01754999 12.02035852 -3.74408514 15.52719774 -5.5625 20.3125 C-6.08377763 24.35240167 -6.301714 26.80669371 -4.5078125 30.4609375 C-3.65751193 31.8143745 -2.77395376 33.14775258 -1.8515625 34.453125 C-0.5625 36.3125 -0.5625 36.3125 0.48046875 38.484375 C0.79628906 39.08765625 1.11210937 39.6909375 1.4375 40.3125 C2.76217746 40.9962045 4.09613633 41.66214186 5.4375 42.3125 C7.1875 44.4375 7.1875 44.4375 8.4375 46.3125 C4.3169254 48.31035435 0.98555635 48.49085515 -3.5625 48.3125 C-3.5625 47.6525 -3.5625 46.9925 -3.5625 46.3125 C-5.2125 45.6525 -6.8625 44.9925 -8.5625 44.3125 C-8.5625 43.6525 -8.5625 42.9925 -8.5625 42.3125 C-9.3978125 42.0340625 -9.3978125 42.0340625 -10.25 41.75 C-13.61528625 39.65806531 -15.54323774 36.68294146 -17.5625 33.3125 C-19.19620716 28.41137852 -18.93637878 23.43124043 -18.5625 18.3125 C-16.87285197 13.51034243 -13.99493666 10.00897025 -10.5625 6.3125 C-9.9025 6.3125 -9.2425 6.3125 -8.5625 6.3125 C-8.5625 5.6525 -8.5625 4.9925 -8.5625 4.3125 C-5.68842377 1.35133055 -4.15901917 0.36482624 0 0 Z " fill="#E3E1D8" transform="translate(207.5625,184.6875)" />
<path d="M0 0 C2.375 0.875 2.375 0.875 4 2 C5.11823815 4.23647631 5.19396061 5.64891529 5.31640625 8.1328125 C5.35830078 8.93847656 5.40019531 9.74414062 5.44335938 10.57421875 C5.48267578 11.41597656 5.52199219 12.25773438 5.5625 13.125 C5.60568359 13.97449219 5.64886719 14.82398438 5.69335938 15.69921875 C5.79954236 17.79928223 5.90028497 19.89961948 6 22 C7.32 22.66 8.64 23.32 10 24 C10 24.66 10 25.32 10 26 C4.39 26 -1.22 26 -7 26 C-7 25.34 -7 24.68 -7 24 C-6.34 24 -5.68 24 -5 24 C-5 18.06 -5 12.12 -5 6 C-6.65 6.66 -8.3 7.32 -10 8 C-10.33 12.95 -10.66 17.9 -11 23 C-10.01 23.33 -9.02 23.66 -8 24 C-8 24.66 -8 25.32 -8 26 C-13.61 26 -19.22 26 -25 26 C-25 25.34 -25 24.68 -25 24 C-23.68 23.67 -22.36 23.34 -21 23 C-21.33 17.39 -21.66 11.78 -22 6 C-22.99 5.67 -23.98 5.34 -25 5 C-25 3.68 -25 2.36 -25 1 C-19.66666667 1 -14.33333333 1 -9 1 C-5.97562661 -0.5121867 -3.33758466 -0.17263369 0 0 Z " fill="#E5E0D0" transform="translate(501,196)" />
<path d="M0 0 C0.85464844 -0.01417969 1.70929688 -0.02835938 2.58984375 -0.04296875 C5.30447101 0.21005338 6.79463639 0.68663828 9.0625 2.1875 C10.80078125 3.765625 10.80078125 3.765625 12.0625 6.1875 C12.41690324 9.11524383 12.34518509 11.9940841 12.25 14.9375 C12.22969727 16.12666016 12.22969727 16.12666016 12.20898438 17.33984375 C12.17375223 19.28935564 12.11994821 21.23851626 12.0625 23.1875 C13.0525 23.1875 14.0425 23.1875 15.0625 23.1875 C14.6875 25.125 14.6875 25.125 14.0625 27.1875 C11.27334611 28.58207694 9.15976736 28.3696922 6.0625 28.1875 C5.19625 27.81625 4.33 27.445 3.4375 27.0625 C2.65375 26.77375 1.87 26.485 1.0625 26.1875 C0.134375 26.6515625 0.134375 26.6515625 -0.8125 27.125 C-2.9375 28.1875 -2.9375 28.1875 -6.5 27.9375 C-9.9375 27.1875 -9.9375 27.1875 -12.9375 25.1875 C-13.16640801 22.15446889 -13.26141856 19.21613849 -12.9375 16.1875 C-10.48086698 13.11670872 -6.46849677 12.09641434 -2.83984375 10.73828125 C-0.9375 10.1875 -0.9375 10.1875 2.0625 10.1875 C2.0625 8.5375 2.0625 6.8875 2.0625 5.1875 C0.7425 4.8575 -0.5775 4.5275 -1.9375 4.1875 C-1.875625 5.363125 -1.875625 5.363125 -1.8125 6.5625 C-1.85375 7.42875 -1.895 8.295 -1.9375 9.1875 C-2.5975 9.8475 -3.2575 10.5075 -3.9375 11.1875 C-7.5625 11.3125 -7.5625 11.3125 -10.9375 11.1875 C-11.6875 8.4375 -11.6875 8.4375 -11.9375 5.1875 C-8.60726419 0.78683125 -5.31877595 0.0399908 0 0 Z M1.0625 14.1875 C-0.28539347 15.16778616 -1.61962715 16.16721135 -2.9375 17.1875 C-2.6075 18.8375 -2.2775 20.4875 -1.9375 22.1875 C-0.6175 21.8575 0.7025 21.5275 2.0625 21.1875 C2.0625 18.8775 2.0625 16.5675 2.0625 14.1875 C1.7325 14.1875 1.4025 14.1875 1.0625 14.1875 Z " fill="#DED8CA" transform="translate(457.9375,195.8125)" />
<path d="M0 0 C1.10794922 -0.03867188 1.10794922 -0.03867188 2.23828125 -0.078125 C4.6875 0.25 4.6875 0.25 10.6875 3.25 C11.0175 9.52 11.3475 15.79 11.6875 22.25 C13.0075 22.58 14.3275 22.91 15.6875 23.25 C15.6875 24.24 15.6875 25.23 15.6875 26.25 C14.125 27.3125 14.125 27.3125 11.6875 28.25 C8.49130204 27.96462518 5.56289896 27.52512539 2.5 26.5625 C1.901875 26.459375 1.30375 26.35625 0.6875 26.25 C-0.65437818 26.8992959 -1.98729497 27.56731862 -3.3125 28.25 C-5.75 28.625 -5.75 28.625 -8.3125 28.25 C-11.125 26.75 -11.125 26.75 -13.3125 24.25 C-14.01441508 21.24265696 -13.76564453 19.42201171 -13.3125 16.25 C-10.5196891 12.87535349 -5.46670169 11.45275655 -1.3125 10.25 C-0.3225 10.25 0.6675 10.25 1.6875 10.25 C1.3575 8.27 1.0275 6.29 0.6875 4.25 C-0.3025 4.25 -1.2925 4.25 -2.3125 4.25 C-2.250625 5.425625 -2.250625 5.425625 -2.1875 6.625 C-2.22875 7.49125 -2.27 8.3575 -2.3125 9.25 C-2.9725 9.91 -3.6325 10.57 -4.3125 11.25 C-9.64583333 11.58333333 -9.64583333 11.58333333 -12.3125 10.25 C-12.625 8 -12.625 8 -12.3125 5.25 C-8.50405544 1.54448638 -5.26025398 0.10902081 0 0 Z M-2.3125 15.25 C-2.6425 17.23 -2.9725 19.21 -3.3125 21.25 C-1.9925 21.58 -0.6725 21.91 0.6875 22.25 C1.0175 19.94 1.3475 17.63 1.6875 15.25 C0.3675 15.25 -0.9525 15.25 -2.3125 15.25 Z " fill="#DFD9CB" transform="translate(276.3125,195.75)" />
<path d="M0 0 C0.79921875 0.20367187 1.5984375 0.40734375 2.421875 0.6171875 C3.02515625 0.78476563 3.6284375 0.95234375 4.25 1.125 C3.9296875 2.98046875 3.9296875 2.98046875 3.25 5.125 C1.75561935 6.32700183 0.26027384 7.52789868 -1.24609375 8.71484375 C-3.86091962 11.16666749 -4.75707052 13.73735824 -5.75 17.125 C-5.58411714 21.93560289 -4.62418991 25.2558982 -1.75 29.125 C-0.76 29.785 0.23 30.445 1.25 31.125 C1.25 31.785 1.25 32.445 1.25 33.125 C2.57 33.785 3.89 34.445 5.25 35.125 C4.92 35.785 4.59 36.445 4.25 37.125 C1.8023341 38.34883295 -0.4353798 39.06704365 -3.125 39.5625 C-7.18325527 38.88612412 -9.87441005 36.93122265 -12.75 34.125 C-15.91122556 30.20813061 -18.41527198 26.40372533 -19.15625 21.359375 C-19.19985876 17.63082619 -18.93298491 14.67395472 -17.75 11.125 C-17.09 11.125 -16.43 11.125 -15.75 11.125 C-15.481875 10.320625 -15.21375 9.51625 -14.9375 8.6875 C-14.545625 7.841875 -14.15375 6.99625 -13.75 6.125 C-12.76 5.795 -11.77 5.465 -10.75 5.125 C-10.440625 4.485625 -10.13125 3.84625 -9.8125 3.1875 C-8.75 1.125 -8.75 1.125 -6.98046875 -0.05859375 C-4.22246307 -1.06809145 -2.81367871 -0.7447973 0 0 Z " fill="#DEDDD5" transform="translate(227.75,189.875)" />
<path d="M0 0 C3.4375 1.3125 3.4375 1.3125 6 3 C8 6 8 6 8 14 C2.72 14 -2.56 14 -8 14 C-7.50541559 18.81517545 -7.50541559 18.81517545 -5.1875 20.875 C-3.11216621 22.17832017 -3.11216621 22.17832017 -1 21.875 C1.1111004 21.05728614 1.1111004 21.05728614 3 19.375 C3.66 18.92125 4.32 18.4675 5 18 C7.25 18.3125 7.25 18.3125 9 19 C8.67 20.32 8.34 21.64 8 23 C7.34 23 6.68 23 6 23 C6 23.66 6 24.32 6 25 C1.07684506 27.4113412 -2.40210579 28.59977438 -8 28 C-11.38529768 27.02457524 -13.93041889 26.18912253 -16.328125 23.5234375 C-18.36956648 20.37501718 -19.25442924 17.62687821 -19.375 13.875 C-19.03155188 10.32603609 -18.78108768 8.05329316 -17 5 C-11.6770997 0.08655357 -7.01227749 -0.6820816 0 0 Z M-6 4 C-6.99 4.495 -6.99 4.495 -8 5 C-8 6.65 -8 8.3 -8 10 C-6.35 10 -4.7 10 -3 10 C-3 8.35 -3 6.7 -3 5 C-3.99 4.67 -4.98 4.34 -6 4 Z " fill="#C5C2B4" transform="translate(432,196)" />
<path d="M0 0 C0.99 0.99 1.98 1.98 3 3 C2.67 3.99 2.34 4.98 2 6 C2.99 6 3.98 6 5 6 C5.33 16.56 5.66 27.12 6 38 C5.01 38.495 5.01 38.495 4 39 C3.67 38.34 3.34 37.68 3 37 C-0.0109362 39.0072908 -0.63016497 39.83884224 -2 43 C-2.99 42.67 -3.98 42.34 -5 42 C-9.90424644 32.75738171 -9.53531165 21.34037505 -8.34838867 11.16992188 C-7.94455376 8.10477693 -7.49114612 5.05241226 -7 2 C-4.69 1.34 -2.38 0.68 0 0 Z " fill="#EEECE1" transform="translate(144,152)" />
<path d="M0 0 C1.84375 0.2734375 1.84375 0.2734375 4 1 C9.56587568 7.37486923 11.38916822 16.89331398 13 25 C13.30231275 28.14909113 13.27291541 30.83418125 13 34 C12.67 34.33 12.34 34.66 12 35 C10.00200428 35.09873816 8.00042842 35.12971799 6 35.125 C4.906875 35.12757813 3.81375 35.13015625 2.6875 35.1328125 C1.800625 35.08898437 0.91375 35.04515625 0 35 C-0.33 34.67 -0.66 34.34 -1 34 C-1.08133791 32.08404032 -1.13934367 30.16708068 -1.1875 28.25 C-1.61660399 21.54709969 -3.64877658 16.59600179 -6.72265625 10.6796875 C-8 8 -8 8 -8 5 C-5.36 4.01 -2.72 3.02 0 2 C0 1.34 0 0.68 0 0 Z " fill="#EBE9DF" transform="translate(249,137)" />
<path d="M0 0 C1.155 0.2475 2.31 0.495 3.5 0.75 C5.5 3.75 5.5 3.75 5.625 6.4375 C5.58375 7.200625 5.5425 7.96375 5.5 8.75 C3.3125 10.375 3.3125 10.375 0.5 11.75 C-2.25 11.125 -2.25 11.125 -4.5 9.75 C-4.83 8.76 -5.16 7.77 -5.5 6.75 C-5.83 7.08 -6.16 7.41 -6.5 7.75 C-6.73653523 10.27596259 -6.92173692 12.78107207 -7.0625 15.3125 C-7.10568359 16.02341797 -7.14886719 16.73433594 -7.19335938 17.46679688 C-7.29971777 19.22761912 -7.40038846 20.9887832 -7.5 22.75 C-5.85 23.08 -4.2 23.41 -2.5 23.75 C-2.5 24.41 -2.5 25.07 -2.5 25.75 C-8.44 25.75 -14.38 25.75 -20.5 25.75 C-20.17 24.76 -19.84 23.77 -19.5 22.75 C-18.84 22.75 -18.18 22.75 -17.5 22.75 C-17.83 17.14 -18.16 11.53 -18.5 5.75 C-19.49 5.42 -20.48 5.09 -21.5 4.75 C-21.5 3.43 -21.5 2.11 -21.5 0.75 C-16.16666667 0.75 -10.83333333 0.75 -5.5 0.75 C-3.5 -0.25 -3.5 -0.25 0 0 Z " fill="#EBE6D6" transform="translate(315.5,196.25)" />
<path d="M0 0 C3.3 0 6.6 0 10 0 C10 7.92 10 15.84 10 24 C10.99 24 11.98 24 13 24 C13 24.99 13 25.98 13 27 C9.33599849 27.37103813 5.6698675 27.69293956 2 28 C0.72125 28.12375 -0.5575 28.2475 -1.875 28.375 C-5 28 -5 28 -7.9375 26 C-9.91101678 23.12943013 -10.37600665 22.28228299 -10.5625 19 C-10.36589798 15.84841012 -9.90851475 14.85667312 -8.125 12.0625 C-6 10 -6 10 -4 9 C-1.6670134 8.95977609 0.66706666 8.95679753 3 9 C3 7.35 3 5.7 3 4 C1.68 3.67 0.36 3.34 -1 3 C-0.67 2.01 -0.34 1.02 0 0 Z M0 12 C-2.32074666 14.91107771 -2.32074666 14.91107771 -2.125 18.6875 C-2.08375 19.780625 -2.0425 20.87375 -2 22 C-0.515 22.99 -0.515 22.99 1 24 C1.66 23.67 2.32 23.34 3 23 C3 19.7 3 16.4 3 13 C2.01 12.67 1.02 12.34 0 12 Z " fill="#C8C6BA" transform="translate(384,236)" />
<path d="M0 0 C0.91007813 0.10183594 1.82015625 0.20367187 2.7578125 0.30859375 C3.45648438 0.39238281 4.15515625 0.47617188 4.875 0.5625 C4.28700629 3.46571892 3.85350902 4.58802054 1.875 6.9375 C-0.26118001 9.45320473 -0.26118001 9.45320473 -1.125 12.5 C-1.37360779 15.73692784 -1.37360779 15.73692784 0.6875 18.8125 C2.7543406 21.51730185 2.7543406 21.51730185 4.875 23.5625 C4.875 24.5525 4.875 25.5425 4.875 26.5625 C1.36723216 28.16605101 -1.26854879 28.78286864 -5.125 28.5625 C-5.455 27.9025 -5.785 27.2425 -6.125 26.5625 C-6.723125 26.315 -7.32125 26.0675 -7.9375 25.8125 C-11.25785323 23.9151553 -12.41547421 21.98155158 -14.125 18.5625 C-14.87160587 15.04698572 -14.94909218 12.06893143 -14.125 8.5625 C-10.37512328 2.61139694 -7.13580467 -0.82336208 0 0 Z " fill="#E6E4DC" transform="translate(243.125,195.4375)" />
<path d="M0 0 C1.65 0 3.3 0 5 0 C7.06467828 3.94165854 8.59590101 7.78770302 10 12 C10.62366091 13.61291614 11.27095369 15.21682854 11.9375 16.8125 C12.25589844 17.58207031 12.57429688 18.35164063 12.90234375 19.14453125 C13.26457031 19.75683594 13.62679688 20.36914062 14 21 C14.99 21.33 15.98 21.66 17 22 C17 22.99 17 23.98 17 25 C12.05 25 7.1 25 2 25 C2 24.01 2 23.02 2 22 C2.66 21.67 3.32 21.34 4 21 C3.67 20.01 3.34 19.02 3 18 C1.02 17.67 -0.96 17.34 -3 17 C-3.33 18.32 -3.66 19.64 -4 21 C-3.01 21.33 -2.02 21.66 -1 22 C-1 22.99 -1 23.98 -1 25 C-4.63 25 -8.26 25 -12 25 C-12 24.01 -12 23.02 -12 22 C-11.01 21.34 -10.02 20.68 -9 20 C-7.89357702 17.56529317 -6.91657805 15.19138117 -6 12.6875 C-4.3343349 8.2153627 -2.61329426 4.021051 0 0 Z M0 10 C-0.66 11.32 -1.32 12.64 -2 14 C-0.68 14 0.64 14 2 14 C1.34 12.68 0.68 11.36 0 10 Z " fill="#CDC9BD" transform="translate(333,238)" />
<path d="M0 0 C2.97 0 5.94 0 9 0 C9 4.62 9 9.24 9 14 C10.32 14 11.64 14 13 14 C13 10.7 13 7.4 13 4 C12.01 4 11.02 4 10 4 C10.33 2.68 10.66 1.36 11 0 C13.97 0 16.94 0 20 0 C20 4.95 20 9.9 20 15 C20.99 15 21.98 15 23 15 C23 15.99 23 16.98 23 18 C21.12528812 18.16987681 19.25021305 18.33574776 17.375 18.5 C16.33085937 18.5928125 15.28671875 18.685625 14.2109375 18.78125 C11.10531852 18.99282502 8.109228 19.17418644 5 19 C4.01 18.34 3.02 17.68 2 17 C1.48828125 14.1796875 1.48828125 14.1796875 1.3125 10.875 C1.24675781 9.77929688 1.18101562 8.68359375 1.11328125 7.5546875 C1.07589844 6.71164063 1.03851563 5.86859375 1 5 C0.34 4.67 -0.32 4.34 -1 4 C-0.67 2.68 -0.34 1.36 0 0 Z " fill="#ACAAA1" transform="translate(350,245)" />
<path d="M0 0 C2.98894596 1.0793416 4.95815967 2.5692377 7 5 C8.07957377 8.23872132 8.13326784 10.66028205 8.125 14.0625 C8.12886719 15.65771484 8.12886719 15.65771484 8.1328125 17.28515625 C8 20 8 20 7 22 C6.34 22 5.68 22 5 22 C4.67 22.99 4.34 23.98 4 25 C0.66584042 27.19566606 -2.17601834 28.21999324 -6.125 28.375 C-10 28 -10 28 -12.5 26.5 C-12.995 26.005 -13.49 25.51 -14 25 C-13.34 25 -12.68 25 -12 25 C-12 24.34 -12 23.68 -12 23 C-9.69 23 -7.38 23 -5 23 C-2.87405107 19.26476701 -2.65393322 16.41782745 -2.73046875 12.1875 C-3.09049243 9.26556867 -4.28626992 7.35637886 -6 5 C-6 4.34 -6 3.68 -6 3 C-6.99 2.34 -7.98 1.68 -9 1 C-5.97562661 -0.5121867 -3.33758466 -0.17263369 0 0 Z " fill="#DDD9CA" transform="translate(366,196)" />
<path d="M0 0 C4.29 0 8.58 0 13 0 C13.33 6.93 13.66 13.86 14 21 C15.32 21.66 16.64 22.32 18 23 C18 23.66 18 24.32 18 25 C12.06 25 6.12 25 0 25 C0 24.34 0 23.68 0 23 C0.66 22.67 1.32 22.34 2 22 C2.495 13.09 2.495 13.09 3 4 C1.68 3.67 0.36 3.34 -1 3 C-0.67 2.01 -0.34 1.02 0 0 Z " fill="#E0DBCD" transform="translate(323,197)" />
<path d="M0 0 C2.37890625 0.48046875 2.37890625 0.48046875 5.44140625 2.54296875 C7.76151452 6.06055226 8.37890625 8.27074309 8.37890625 12.48046875 C7.1785169 15.32349616 6.11791123 16.9056871 3.69140625 18.79296875 C0.18301194 19.8360049 -3.03783489 20.12572992 -6.62109375 19.48046875 C-9.61184087 18.18069258 -10.43542498 17.15791299 -12.62109375 14.48046875 C-13.42018271 11.30135943 -13.36436825 8.666754 -12.62109375 5.48046875 C-9.40794693 0.23232895 -5.79210063 -0.31938558 0 0 Z M-3.62109375 3.48046875 C-3.95109375 3.81046875 -4.28109375 4.14046875 -4.62109375 4.48046875 C-4.69335877 6.33334377 -4.70490595 8.18880753 -4.68359375 10.04296875 C-4.67457031 11.05488281 -4.66554688 12.06679688 -4.65625 13.109375 C-4.64464844 13.89183594 -4.63304687 14.67429687 -4.62109375 15.48046875 C-3.63109375 15.81046875 -2.64109375 16.14046875 -1.62109375 16.48046875 C0.09520692 13.14882627 0.37853729 11.47671762 0.00390625 7.66796875 C-0.20234375 6.61609375 -0.40859375 5.56421875 -0.62109375 4.48046875 C-1.61109375 4.15046875 -2.60109375 3.82046875 -3.62109375 3.48046875 Z " fill="#BAB7AB" transform="translate(461.62109375,244.51953125)" />
<path d="M0 0 C3.28358665 0.09657608 5.52853339 0.4958921 8.25 2.375 C10.6875 5.4375 10.6875 5.4375 11.05078125 7.7734375 C11.06145082 10.02827314 10.9508222 12.19926127 10.6875 14.4375 C9.6975 14.7675 8.7075 15.0975 7.6875 15.4375 C7.3575 16.4275 7.0275 17.4175 6.6875 18.4375 C3.2134729 20.17451355 -0.51428024 19.89013759 -4.3125 19.4375 C-7.3125 17.9375 -7.3125 17.9375 -9.3125 15.4375 C-10.21948835 12.72220362 -10.51682881 10.29242748 -10.3125 7.4375 C-8.1654828 2.49936043 -5.43493802 0.15957504 0 0 Z M-0.3125 3.4375 C-2.08651355 5.52825658 -2.08651355 5.52825658 -3.3125 8.4375 C-2.60864601 12.19565858 -2.60864601 12.19565858 -1.3125 15.4375 C-0.3225 15.4375 0.6675 15.4375 1.6875 15.4375 C2.0175 15.1075 2.3475 14.7775 2.6875 14.4375 C2.75929964 12.91821962 2.77142007 11.39582518 2.75 9.875 C2.74097656 9.04871094 2.73195313 8.22242188 2.72265625 7.37109375 C2.71105469 6.73300781 2.69945312 6.09492188 2.6875 5.4375 C1.6975 4.7775 0.7075 4.1175 -0.3125 3.4375 Z " fill="#D2D1C5" transform="translate(422.3125,244.5625)" />
<path d="M0 0 C0.66 0.33 1.32 0.66 2 1 C2 3.64 2 6.28 2 9 C-3.28 9 -8.56 9 -14 9 C-13.50541559 13.81517545 -13.50541559 13.81517545 -11.1875 15.875 C-9.11216621 17.17832017 -9.11216621 17.17832017 -7 16.875 C-4.8888996 16.05728614 -4.8888996 16.05728614 -3 14.375 C-2.01 13.694375 -2.01 13.694375 -1 13 C1.25 13.3125 1.25 13.3125 3 14 C2.67 15.32 2.34 16.64 2 18 C1.34 18 0.68 18 0 18 C0 18.66 0 19.32 0 20 C-4.92315494 22.4113412 -8.40210579 23.59977438 -14 23 C-17.38529768 22.02457524 -19.93041889 21.18912253 -22.328125 18.5234375 C-24.47264007 15.21605158 -25.22903308 12.50428041 -25.25 8.5625 C-25.1675 7.386875 -25.085 6.21125 -25 5 C-24.67 5 -24.34 5 -24 5 C-23.67 7.31 -23.34 9.62 -23 12 C-20.78918149 12.10540926 -20.78918149 12.10540926 -18 11 C-17.01 11.33 -16.02 11.66 -15 12 C-15 10.68 -15 9.36 -15 8 C-11.7 8 -8.4 8 -5 8 C-5 7.34 -5 6.68 -5 6 C-3.02 5.67 -1.04 5.34 1 5 C0.67 3.35 0.34 1.7 0 0 Z " fill="#ACA89B" transform="translate(438,201)" />
<path d="M0 0 C9.85828397 2.35450277 9.85828397 2.35450277 13.125 5.6875 C13.74375 6.450625 14.3625 7.21375 15 8 C14.67 9.65 14.34 11.3 14 13 C13.34 13 12.68 13 12 13 C11.7525 13.639375 11.505 14.27875 11.25 14.9375 C10 17 10 17 8.25 18 C7.5075 18 6.765 18 6 18 C4.65837803 17.02732407 3.31870813 16.05176593 1.9921875 15.05859375 C-2.24603828 12.80651692 -7.29035587 12.57917954 -12 12 C-12 11.67 -12 11.34 -12 11 C-11.04287109 10.81824219 -11.04287109 10.81824219 -10.06640625 10.6328125 C-9.24011719 10.46523437 -8.41382813 10.29765625 -7.5625 10.125 C-6.32693359 9.88136719 -6.32693359 9.88136719 -5.06640625 9.6328125 C-4.38449219 9.42398438 -3.70257813 9.21515625 -3 9 C-2.67 8.34 -2.34 7.68 -2 7 C-1.649375 6.360625 -1.29875 5.72125 -0.9375 5.0625 C0.20690147 2.92241195 0.20690147 2.92241195 0 0 Z " fill="#DDDBD2" transform="translate(207,139)" />
<path d="M0 0 C3.3 0 6.6 0 10 0 C10 7.92 10 15.84 10 24 C10.99 24 11.98 24 13 24 C13 24.99 13 25.98 13 27 C9.04 27 5.08 27 1 27 C1 26.01 1 25.02 1 24 C1.66 24 2.32 24 3 24 C3 17.4 3 10.8 3 4 C2.01 4 1.02 4 0 4 C0 2.68 0 1.36 0 0 Z " fill="#C7C3B6" transform="translate(434,236)" />
<path d="M0 0 C1.20527344 0.00966797 2.41054688 0.01933594 3.65234375 0.02929688 C4.90660156 0.05443359 6.16085937 0.07957031 7.453125 0.10546875 C8.72285156 0.11900391 9.99257813 0.13253906 11.30078125 0.14648438 C14.43532344 0.18183635 17.56901045 0.23118627 20.703125 0.29296875 C20.703125 0.62296875 20.703125 0.95296875 20.703125 1.29296875 C17.073125 1.29296875 13.443125 1.29296875 9.703125 1.29296875 C9.703125 1.95296875 9.703125 2.61296875 9.703125 3.29296875 C10.363125 3.62296875 11.023125 3.95296875 11.703125 4.29296875 C10.383125 4.62296875 9.063125 4.95296875 7.703125 5.29296875 C7.6 6.07671875 7.496875 6.86046875 7.390625 7.66796875 C7.16375 8.53421875 6.936875 9.40046875 6.703125 10.29296875 C3.703125 12.29296875 3.703125 12.29296875 1.44140625 12.48828125 C0.24064453 12.45347656 0.24064453 12.45347656 -0.984375 12.41796875 C-1.79261719 12.39992188 -2.60085938 12.381875 -3.43359375 12.36328125 C-4.35591797 12.32847656 -4.35591797 12.32847656 -5.296875 12.29296875 C-5.626875 14.27296875 -5.956875 16.25296875 -6.296875 18.29296875 C-6.626875 17.30296875 -6.956875 16.31296875 -7.296875 15.29296875 C-7.956875 15.29296875 -8.616875 15.29296875 -9.296875 15.29296875 C-9.27625 14.48859375 -9.255625 13.68421875 -9.234375 12.85546875 C-9.255 12.00984375 -9.275625 11.16421875 -9.296875 10.29296875 C-9.626875 9.96296875 -9.956875 9.63296875 -10.296875 9.29296875 C-10.609375 6.41796875 -10.609375 6.41796875 -10.296875 3.29296875 C-7.10610734 0.0020704 -4.45317661 -0.06301665 0 0 Z M-2.296875 3.29296875 C-2.626875 4.94296875 -2.956875 6.59296875 -3.296875 8.29296875 C-2.306875 8.62296875 -1.316875 8.95296875 -0.296875 9.29296875 C-0.296875 7.64296875 -0.296875 5.99296875 -0.296875 4.29296875 C-0.956875 3.96296875 -1.616875 3.63296875 -2.296875 3.29296875 Z " fill="#F5F2E4" transform="translate(482.296875,244.70703125)" />
<path d="M0 0 C0.99 0.33 1.98 0.66 3 1 C3.33 6.94 3.66 12.88 4 19 C5.32 19.66 6.64 20.32 8 21 C8 21.66 8 22.32 8 23 C2.39 23 -3.22 23 -9 23 C-9 22.34 -9 21.68 -9 21 C-8.34 20.67 -7.68 20.34 -7 20 C-6.99742187 18.89140625 -6.99484375 17.7828125 -6.9921875 16.640625 C-6.95465976 15.17704318 -6.91551217 13.71350226 -6.875 12.25 C-6.87757813 11.52039063 -6.88015625 10.79078125 -6.8828125 10.0390625 C-6.8046875 7.890625 -6.8046875 7.890625 -6 4 C-3.1328125 1.421875 -3.1328125 1.421875 0 0 Z " fill="#E8E3D5" transform="translate(503,199)" />
<path d="M0 0 C0.99 0.99 1.98 1.98 3 3 C2.13375 4.0209375 2.13375 4.0209375 1.25 5.0625 C-3.47040445 11.22525025 -5.69255479 16.41337713 -7 24 C-7.33 22.68 -7.66 21.36 -8 20 C-8.99 20 -9.98 20 -11 20 C-11.33 18.35 -11.66 16.7 -12 15 C-12.78375 15.165 -13.5675 15.33 -14.375 15.5 C-17 16 -17 16 -19 16 C-16.10933941 5.44191344 -16.10933941 5.44191344 -13 1 C-12.43796875 1.31710938 -11.8759375 1.63421875 -11.296875 1.9609375 C-8.84803683 3.06874525 -6.91612145 3.38975399 -4.25 3.625 C-3.45078125 3.69976562 -2.6515625 3.77453125 -1.828125 3.8515625 C-1.22484375 3.90054688 -0.6215625 3.94953125 0 4 C0 2.68 0 1.36 0 0 Z " fill="#E3E1D7" transform="translate(157,138)" />
<path d="M0 0 C4.29 0 8.58 0 13 0 C13.74080644 10.79298003 14.25763948 21.22299705 13 32 C12.67 32 12.34 32 12 32 C11.67 27.71 11.34 23.42 11 19 C9.68 18.67 8.36 18.34 7 18 C7.02320313 19.05960938 7.04640625 20.11921875 7.0703125 21.2109375 C7.08906944 22.5989513 7.10726972 23.9869727 7.125 25.375 C7.14175781 26.07367188 7.15851563 26.77234375 7.17578125 27.4921875 C7.19344267 29.32897486 7.10303261 31.16601963 7 33 C6.34 33.66 5.68 34.32 5 35 C4.67 25.1 4.34 15.2 4 5 C2.68 4.34 1.36 3.68 0 3 C0 2.01 0 1.02 0 0 Z " fill="#F8F3E3" transform="translate(376,184)" />
<path d="M0 0 C0.99 0.33 1.98 0.66 3 1 C2.34 2.051875 1.68 3.10375 1 4.1875 C-0.45758553 6.71261295 -0.99693651 7.96400399 -1.25 10.9375 C-1.12625 11.9584375 -1.12625 11.9584375 -1 13 C-1.99 13.66 -2.98 14.32 -4 15 C-4.33 14.67 -4.66 14.34 -5 14 C-5.33 14.99 -5.66 15.98 -6 17 C-9.96 17 -13.92 17 -18 17 C-17.70442649 13.2314377 -17.31214306 10.52824211 -15.375 7.25 C-12.44108823 4.47050464 -9.82393684 3.27464561 -6 2 C-3.0625 1.8125 -3.0625 1.8125 -1 2 C-0.67 1.34 -0.34 0.68 0 0 Z " fill="#F2EFE3" transform="translate(163,125)" />
<path d="M0 0 C0.66 0 1.32 0 2 0 C2.33 4.62 2.66 9.24 3 14 C5.0728125 13.6596875 5.0728125 13.6596875 7.1875 13.3125 C10.51469483 12.93642774 11.75280917 12.88715201 14.875 14.3125 C15.57625 14.869375 16.2775 15.42625 17 16 C17.99 16.66 18.98 17.32 20 18 C20 20.97 20 23.94 20 27 C17 28 14 29 11 30 C10.85304688 29.06027344 10.85304688 29.06027344 10.703125 28.1015625 C10.55359375 27.28429687 10.4040625 26.46703125 10.25 25.625 C10.04117187 24.40683594 10.04117187 24.40683594 9.828125 23.1640625 C9.17572827 20.86282947 9.17572827 20.86282947 7.109375 19.6484375 C6.41328125 19.43445313 5.7171875 19.22046875 5 19 C4.01 19.33 3.02 19.66 2 20 C0.89210465 15.94691667 0.66268733 11.92888626 0.4375 7.75 C0.39431641 7.00492188 0.35113281 6.25984375 0.30664062 5.4921875 C0.20103275 3.661651 0.10005799 1.83084824 0 0 Z " fill="#B6B4A7" transform="translate(388,183)" />
<path d="M0 0 C0.66 0.33 1.32 0.66 2 1 C2.13277344 2.10859375 2.26554688 3.2171875 2.40234375 4.359375 C2.58059757 5.8229327 2.75899028 7.28647349 2.9375 8.75 C3.02451172 9.47960937 3.11152344 10.20921875 3.20117188 10.9609375 C3.62027409 14.37584442 4.117274 17.67603543 5 21 C2 22 2 22 -1 22 C-2.010625 22.350625 -3.02125 22.70125 -4.0625 23.0625 C-5.5165625 23.5265625 -5.5165625 23.5265625 -7 24 C-7.66 23.67 -8.32 23.34 -9 23 C-9 18.71 -9 14.42 -9 10 C-6.36 9.67 -3.72 9.34 -1 9 C-0.67 6.03 -0.34 3.06 0 0 Z " fill="#F1EFE4" transform="translate(179,241)" />
<path d="M0 0 C1.875 0.25 1.875 0.25 4 1 C4.309375 1.66 4.61875 2.32 4.9375 3 C5.288125 3.66 5.63875 4.32 6 5 C8.55519921 5.81171228 8.55519921 5.81171228 11 6 C11 6.66 11 7.32 11 8 C11.598125 8.2475 12.19625 8.495 12.8125 8.75 C15.28647521 10.16370012 16.43370255 11.65055383 18 14 C13.8794254 15.99785435 10.54805635 16.17835515 6 16 C6 15.34 6 14.68 6 14 C3.525 13.01 3.525 13.01 1 12 C1 11.34 1 10.68 1 10 C0.34 10 -0.32 10 -1 10 C-1.66 8.02 -2.32 6.04 -3 4 C-2.34 4 -1.68 4 -1 4 C-0.67 2.68 -0.34 1.36 0 0 Z " fill="#E6E6DD" transform="translate(198,217)" />
<path d="M0 0 C2.97 0 5.94 0 9 0 C9 4.95 9 9.9 9 15 C9.66 15 10.32 15 11 15 C11 15.99 11 16.98 11 18 C7.04 18 3.08 18 -1 18 C-0.67 17.01 -0.34 16.02 0 15 C0.66 15 1.32 15 2 15 C1.67 11.7 1.34 8.4 1 5 C0.34 4.67 -0.32 4.34 -1 4 C-0.67 2.68 -0.34 1.36 0 0 Z " fill="#CDC9BE" transform="translate(399,245)" />
<path d="M0 0 C0.33 0 0.66 0 1 0 C1.33 8.91 1.66 17.82 2 27 C2 23.7 2 20.4 2 17 C2.33 15.68 2.66 14.36 3 13 C4.65 13.33 6.3 13.66 8 14 C8.33 19.28 8.66 24.56 9 30 C7.68 30.33 6.36 30.66 5 31 C4.67 32.32 4.34 33.64 4 35 C2.68 35 1.36 35 0 35 C0 23.45 0 11.9 0 0 Z " fill="#CEC8B8" transform="translate(380,189)" />
<path d="M0 0 C1.155 0.2475 2.31 0.495 3.5 0.75 C5.5 3.75 5.5 3.75 5.625 6.4375 C5.58375 7.200625 5.5425 7.96375 5.5 8.75 C3.3125 10.375 3.3125 10.375 0.5 11.75 C-2.25 11.125 -2.25 11.125 -4.5 9.75 C-4.83 8.76 -5.16 7.77 -5.5 6.75 C-6.49 7.245 -6.49 7.245 -7.5 7.75 C-7.5 7.09 -7.5 6.43 -7.5 5.75 C-8.16 5.42 -8.82 5.09 -9.5 4.75 C-9.17 3.76 -8.84 2.77 -8.5 1.75 C-12.79 1.75 -17.08 1.75 -21.5 1.75 C-21.5 1.42 -21.5 1.09 -21.5 0.75 C-16.16666667 0.75 -10.83333333 0.75 -5.5 0.75 C-3.5 -0.25 -3.5 -0.25 0 0 Z " fill="#DDD7CB" transform="translate(315.5,196.25)" />
<path d="M0 0 C1.32 0 2.64 0 4 0 C4 7.92 4 15.84 4 24 C4.66 24.33 5.32 24.66 6 25 C2.7 25 -0.6 25 -4 25 C-3.67 24.01 -3.34 23.02 -3 22 C-2.77820215 20.10787263 -2.59385985 18.21115528 -2.4375 16.3125 C-2.31181641 14.82169922 -2.31181641 14.82169922 -2.18359375 13.30078125 C-2.12300781 12.54152344 -2.06242187 11.78226563 -2 11 C-2.66 11 -3.32 11 -4 11 C-4 10.34 -4 9.68 -4 9 C-2 7.375 -2 7.375 0 6 C0.33 6.99 0.66 7.98 1 9 C1.74957157 5.52852158 1.74957157 5.52852158 2 2 C1.34 2 0.68 2 0 2 C0 1.34 0 0.68 0 0 Z " fill="#F8F3E4" transform="translate(390,237)" />
<path d="M0 0 C2.97 0 5.94 0 9 0 C9.06058594 1.05960938 9.12117188 2.11921875 9.18359375 3.2109375 C9.26800127 4.59897221 9.35264917 5.98699232 9.4375 7.375 C9.47681641 8.07367188 9.51613281 8.77234375 9.55664062 9.4921875 C9.74280134 13.37360492 9.74280134 13.37360492 11 17 C8.69 16.67 6.38 16.34 4 16 C2.86235649 11.73383684 2 8.43513689 2 4 C1.01 4 0.02 4 -1 4 C-0.67 2.68 -0.34 1.36 0 0 Z " fill="#D3D0C1" transform="translate(361,245)" />
<path d="M0 0 C1.74271938 2.297221 3.39911152 4.59866729 5 7 C4.875 9.5625 4.875 9.5625 4 12 C1.9375 13.3125 1.9375 13.3125 0 14 C0 14.66 0 15.32 0 16 C-1.8125 16.625 -1.8125 16.625 -4 17 C-4.99 16.34 -5.98 15.68 -7 15 C-7 14.34 -7 13.68 -7 13 C-7.66 13 -8.32 13 -9 13 C-8.3125 11.0625 -8.3125 11.0625 -7 9 C-4.375 8.25 -4.375 8.25 -2 8 C-1.7834375 6.576875 -1.7834375 6.576875 -1.5625 5.125 C-1 2 -1 2 0 0 Z " fill="#DADAD2" transform="translate(179,178)" />
<path d="M0 0 C2.97 0.33 5.94 0.66 9 1 C9.33 2.98 9.66 4.96 10 7 C7.36 7.33 4.72 7.66 2 8 C1.67 9.32 1.34 10.64 1 12 C-1.31 11.67 -3.62 11.34 -6 11 C-5.67 9.35 -5.34 7.7 -5 6 C-4.34 6 -3.68 6 -3 6 C-3.33 5.01 -3.66 4.02 -4 3 C-3.01 3 -2.02 3 -1 3 C-0.67 2.01 -0.34 1.02 0 0 Z " fill="#D3CFC3" transform="translate(477,257)" />
<path d="M0 0 C2.4375 1.5 2.4375 1.5 4 3 C-1.75 7 -1.75 7 -4 7 C-4 12.28 -4 17.56 -4 23 C-4.33 23 -4.66 23 -5 23 C-5 17.39 -5 11.78 -5 6 C-6.32 6 -7.64 6 -9 6 C-9 5.34 -9 4.68 -9 4 C-9.99 4 -10.98 4 -12 4 C-12 3.34 -12 2.68 -12 2 C-15.96 2 -19.92 2 -24 2 C-23.67 2.99 -23.34 3.98 -23 5 C-23.66 5 -24.32 5 -25 5 C-25 3.68 -25 2.36 -25 1 C-19.66666667 1 -14.33333333 1 -9 1 C-5.94306678 -0.52846661 -3.37015453 -0.23242445 0 0 Z " fill="#9E9B8F" transform="translate(501,196)" />
<path d="M0 0 C0.125 3.375 0.125 3.375 0 7 C-0.66 7.66 -1.32 8.32 -2 9 C-4.9375 9.3125 -4.9375 9.3125 -8 9 C-9.9375 7.875 -9.9375 7.875 -11 6 C-10.9375 2.9375 -10.9375 2.9375 -10 0 C-6.59554942 -3.02617829 -3.89949725 -1.59524888 0 0 Z " fill="#C2C0B5" transform="translate(336,185)" />
<path d="M0 0 C0.99 0.33 1.98 0.66 3 1 C2.13375 1.309375 2.13375 1.309375 1.25 1.625 C-2.89756057 4.15962035 -5.00365016 8.67457535 -7 13 C-7.66 12.67 -8.32 12.34 -9 12 C-9.33 12.99 -9.66 13.98 -10 15 C-10.70125 14.95875 -11.4025 14.9175 -12.125 14.875 C-15.38371628 15.01668332 -17.9559947 15.86734686 -21 17 C-20.01 15.515 -20.01 15.515 -19 14 C-18.34 14 -17.68 14 -17 14 C-16.76925781 13.41347656 -16.53851563 12.82695313 -16.30078125 12.22265625 C-14.6690015 9.43441998 -12.86305918 8.2305659 -10.1875 6.4375 C-9.33542969 5.85871094 -8.48335937 5.27992187 -7.60546875 4.68359375 C-6.74566406 4.12800781 -5.88585937 3.57242188 -5 3 C-4.12988281 2.41347656 -3.25976562 1.82695313 -2.36328125 1.22265625 C-1.58339844 0.81917969 -0.80351562 0.41570312 0 0 Z " fill="#D0CFC8" transform="translate(172,113)" />
<path d="M0 0 C0.33 0 0.66 0 1 0 C0.98839844 0.66386719 0.97679687 1.32773438 0.96484375 2.01171875 C0.88106591 8.56306787 0.88106591 8.56306787 2 15 C-1.53411321 17.12046792 -4.94393835 17.53199289 -9 18 C-9.33 17.01 -9.66 16.02 -10 15 C-9.01 14.34 -8.02 13.68 -7 13 C-7 12.01 -7 11.02 -7 10 C-6.34 9.67 -5.68 9.34 -5 9 C-4.690625 8.05125 -4.38125 7.1025 -4.0625 6.125 C-3.05377212 3.1581533 -2.4156748 1.8905281 0 0 Z " fill="#E8E7DC" transform="translate(221,201)" />
<path d="M0 0 C1.65 0.33 3.3 0.66 5 1 C7.09230769 5.43076923 7.09230769 5.43076923 6.625 8.3125 C6.315625 9.1478125 6.315625 9.1478125 6 10 C5.34 10 4.68 10 4 10 C3.67 10.33 3.34 10.66 3 11 C0.13732433 11.07325168 -2.700719 11.09238205 -5.5625 11.0625 C-6.36880859 11.05798828 -7.17511719 11.05347656 -8.00585938 11.04882812 C-10.00393756 11.03700518 -12.00197783 11.01906914 -14 11 C-13.67 10.34 -13.34 9.68 -13 9 C-11.35 9.33 -9.7 9.66 -8 10 C-7.67 9.01 -7.34 8.02 -7 7 C-7 7.66 -7 8.32 -7 9 C-5.35 8.67 -3.7 8.34 -2 8 C-2 7.01 -2 6.02 -2 5 C-1.34 4.67 -0.68 4.34 0 4 C0 2.68 0 1.36 0 0 Z " fill="#B6B4AA" transform="translate(486,259)" />
<path d="M0 0 C0.90105469 0.00902344 1.80210937 0.01804688 2.73046875 0.02734375 C3.41753906 0.03894531 4.10460937 0.05054688 4.8125 0.0625 C4.8125 0.3925 4.8125 0.7225 4.8125 1.0625 C-1.1275 1.5575 -1.1275 1.5575 -7.1875 2.0625 C-6.1975 2.7225 -5.2075 3.3825 -4.1875 4.0625 C-1.54117713 3.7503236 -1.54117713 3.7503236 0.8125 3.0625 C1.1425 3.7225 1.4725 4.3825 1.8125 5.0625 C0.4925 4.7325 -0.8275 4.4025 -2.1875 4.0625 C-2.125625 5.238125 -2.125625 5.238125 -2.0625 6.4375 C-2.10375 7.30375 -2.145 8.17 -2.1875 9.0625 C-2.8475 9.7225 -3.5075 10.3825 -4.1875 11.0625 C-7.8125 11.1875 -7.8125 11.1875 -11.1875 11.0625 C-11.9375 8.3125 -11.9375 8.3125 -12.1875 5.0625 C-8.75945898 0.53258866 -5.45152031 -0.07079897 0 0 Z " fill="#9C998F" transform="translate(458.1875,195.9375)" />
<path d="M0 0 C0.66 0.33 1.32 0.66 2 1 C3.34061543 0.69728039 4.67405895 0.36162029 6 0 C6.99 0 7.98 0 9 0 C9 2.97 9 5.94 9 9 C6 10 3 11 0 12 C-0.19401633 10.18818595 -0.38004375 8.37551468 -0.5625 6.5625 C-0.66691406 5.55316406 -0.77132813 4.54382813 -0.87890625 3.50390625 C-0.91886719 2.67761719 -0.95882813 1.85132813 -1 1 C-0.67 0.67 -0.34 0.34 0 0 Z " fill="#EBE6D5" transform="translate(399,201)" />
<path d="M0 0 C0.99 0.33 1.98 0.66 3 1 C3 6.61 3 12.22 3 18 C2.67 18 2.34 18 2 18 C2 14.7 2 11.4 2 8 C1.34 8 0.68 8 0 8 C0 7.34 0 6.68 0 6 C-0.99 6.66 -1.98 7.32 -3 8 C-3.80541207 11.10811287 -3.80541207 11.10811287 -4.1875 14.625 C-4.34605469 15.81351563 -4.50460937 17.00203125 -4.66796875 18.2265625 C-4.77753906 19.14179688 -4.88710938 20.05703125 -5 21 C-5.33 21 -5.66 21 -6 21 C-6 15.39 -6 9.78 -6 4 C-4.02 2.68 -2.04 1.36 0 0 Z " fill="#F3EEE0" transform="translate(503,199)" />
<path d="M0 0 C0.33 0.66 0.66 1.32 1 2 C0.72057545 3.67654729 0.39171753 5.34608154 0 7 C0.94875 6.814375 1.8975 6.62875 2.875 6.4375 C6 6 6 6 8 7 C8 5.35 8 3.7 8 2 C8.2475 2.639375 8.495 3.27875 8.75 3.9375 C9.36875 4.9584375 9.36875 4.9584375 10 6 C12.05000871 6.80528889 12.05000871 6.80528889 14 7 C13.34 7.66 12.68 8.32 12 9 C12.33 9.66 12.66 10.32 13 11 C11.4375 12.0625 11.4375 12.0625 9 13 C4.8195491 12.70663502 2.51113888 12.34075925 -1 10 C-1.02689216 8.52093108 -1.04634621 7.04172517 -1.0625 5.5625 C-1.07410156 4.73878906 -1.08570313 3.91507813 -1.09765625 3.06640625 C-1.04931641 2.04353516 -1.04931641 2.04353516 -1 1 C-0.67 0.67 -0.34 0.34 0 0 Z " fill="#C0BBB1" transform="translate(446,211)" />
<path d="M0 0 C0.66 0 1.32 0 2 0 C4.6331038 3.94965569 5.12274339 6.54875885 5.0625 11.1875 C5.05347656 12.08855469 5.04445313 12.98960937 5.03515625 13.91796875 C5.02355469 14.60503906 5.01195312 15.29210937 5 16 C6.32 16.33 7.64 16.66 9 17 C9 17.66 9 18.32 9 19 C11.31 19.33 13.62 19.66 16 20 C16 20.33 16 20.66 16 21 C10.06 21 4.12 21 -2 21 C-1.67 20.01 -1.34 19.02 -1 18 C-0.34 18 0.32 18 1 18 C0.67 12.06 0.34 6.12 0 0 Z " fill="#C5C2B8" transform="translate(297,201)" />
<path d="M0 0 C2.97 0 5.94 0 9 0 C9 3.63 9 7.26 9 11 C8.01 11.495 8.01 11.495 7 12 C6.34 11.67 5.68 11.34 5 11 C5 11.66 5 12.32 5 13 C4.34 13 3.68 13 3 13 C2.67 10.03 2.34 7.06 2 4 C1.34 3.67 0.68 3.34 0 3 C0 2.01 0 1.02 0 0 Z " fill="#D9D4C7" transform="translate(349,246)" />
<path d="M0 0 C0 0.99 0 1.98 0 3 C0.185625 3.680625 0.37125 4.36125 0.5625 5.0625 C0.706875 5.701875 0.85125 6.34125 1 7 C0.67 7.66 0.34 8.32 0 9 C-0.66 9 -1.32 9 -2 9 C-1.67 10.98 -1.34 12.96 -1 15 C0.32 15.33 1.64 15.66 3 16 C-0.28423071 16.37534065 -1.86008015 16.07462392 -4.8125 14.5 C-7 12 -7 12 -7.453125 10.05859375 C-7.5625 7.9375 -7.5625 7.9375 -7 4 C-4.75416099 1.59927554 -3.12739447 1.04246482 0 0 Z " fill="#DAD7C9" transform="translate(270,208)" />
<path d="M0 0 C0.33 0 0.66 0 1 0 C1.02705729 1.77074917 1.04642195 3.54161711 1.0625 5.3125 C1.07410156 6.29863281 1.08570313 7.28476563 1.09765625 8.30078125 C1 11 1 11 0 14 C-0.66 14 -1.32 14 -2 14 C-2.33 14.99 -2.66 15.98 -3 17 C-3.33 15.68 -3.66 14.36 -4 13 C-4.99 13 -5.98 13 -7 13 C-7 12.01 -7 11.02 -7 10 C-7.99 10.33 -8.98 10.66 -10 11 C-10 8.03 -10 5.06 -10 2 C-9.67 2 -9.34 2 -9 2 C-8.67 3.98 -8.34 5.96 -8 8 C-7.01 7.34 -6.02 6.68 -5 6 C-4.01 6 -3.02 6 -2 6 C-1.34 4.02 -0.68 2.04 0 0 Z " fill="#B3AFA1" transform="translate(408,204)" />
<path d="M0 0 C1.11375 0.0928125 1.11375 0.0928125 2.25 0.1875 C2.58 2.4975 2.91 4.8075 3.25 7.1875 C1.27 7.5175 -0.71 7.8475 -2.75 8.1875 C-2.75 8.8475 -2.75 9.5075 -2.75 10.1875 C-5.39 10.1875 -8.03 10.1875 -10.75 10.1875 C-10.75 9.5275 -10.75 8.8675 -10.75 8.1875 C-9.1 8.1875 -7.45 8.1875 -5.75 8.1875 C-6.08 6.5375 -6.41 4.8875 -6.75 3.1875 C-4.39031256 1.09000005 -3.20383006 0.21844296 0 0 Z " fill="#EDE9D8" transform="translate(435.75,198.8125)" />
<path d="M0 0 C4.29 0 8.58 0 13 0 C12 5 12 5 11 7 C10.34 7 9.68 7 9 7 C8.67 7.66 8.34 8.32 8 9 C7.67 8.34 7.34 7.68 7 7 C6.67 11.29 6.34 15.58 6 20 C5.67 20 5.34 20 5 20 C5 14.39 5 8.78 5 3 C3.35 3 1.7 3 0 3 C0 2.01 0 1.02 0 0 Z " fill="#F8F5EA" transform="translate(294,198)" />
<path d="M0 0 C1.32 0 2.64 0 4 0 C4.268125 0.639375 4.53625 1.27875 4.8125 1.9375 C5.204375 2.618125 5.59625 3.29875 6 4 C6.99 4.33 7.98 4.66 9 5 C8.67 5.66 8.34 6.32 8 7 C9.258125 6.855625 10.51625 6.71125 11.8125 6.5625 C12.87404297 6.44068359 12.87404297 6.44068359 13.95703125 6.31640625 C16.19396393 6.02829265 16.19396393 6.02829265 19 5 C19 5.99 19 6.98 19 8 C5.98368679 9.31810767 5.98368679 9.31810767 1 9 C0.34 8.34 -0.32 7.68 -1 7 C-1.1875 3.9375 -1.1875 3.9375 -1 1 C-0.67 0.67 -0.34 0.34 0 0 Z " fill="#D1CCBF" transform="translate(378,255)" />
<path d="M0 0 C0.66 0.33 1.32 0.66 2 1 C2 1.66 2 2.32 2 3 C2.66 3 3.32 3 4 3 C2.56521739 7.54347826 2.56521739 7.54347826 0.375 9.3125 C-3.21797275 10.35257106 -6.25673798 10.24150078 -10 10 C-10.66 9.34 -11.32 8.68 -12 8 C-11.34 8 -10.68 8 -10 8 C-10 7.34 -10 6.68 -10 6 C-8.35 6 -6.7 6 -5 6 C-4.731875 5.38125 -4.46375 4.7625 -4.1875 4.125 C-3 2 -3 2 0 0 Z " fill="#B9B6AC" transform="translate(465,254)" />
<path d="M0 0 C3.63 0 7.26 0 11 0 C10.53199289 4.05606165 10.12046792 7.46588679 8 11 C6.125 10.25 6.125 10.25 4 9 C2.30933342 6.3794668 2 5.17370278 2 2 C1.34 2 0.68 2 0 2 C0 1.34 0 0.68 0 0 Z " fill="#E0DDCE" transform="translate(492,246)" />
<path d="M0 0 C2.3125 0.25 2.3125 0.25 4 1 C3.67 2.32 3.34 3.64 3 5 C2.34 5 1.68 5 1 5 C1 5.66 1 6.32 1 7 C-3.49656104 9.24828052 -7.07872966 9.16682272 -12 9 C-11.67 7.35 -11.34 5.7 -11 4 C-9.6696875 4.12375 -9.6696875 4.12375 -8.3125 4.25 C-4.27231449 3.94508034 -3.06575485 2.50101053 0 0 Z " fill="#BEBCB3" transform="translate(437,214)" />
<path d="M0 0 C1.3921875 0.0928125 1.3921875 0.0928125 2.8125 0.1875 C2.91015625 6.33984375 2.91015625 6.33984375 2.8125 8.1875 C2.4825 8.5175 2.1525 8.8475 1.8125 9.1875 C-3.71691176 9.42279412 -3.71691176 9.42279412 -6.1875 8.1875 C-6.375 5.875 -6.375 5.875 -6.1875 3.1875 C-4.38842468 0.28898975 -3.44821242 0.20283602 0 0 Z " fill="#F7F1E2" transform="translate(270.1875,197.8125)" />
<path d="M0 0 C1.65 0 3.3 0 5 0 C5.02712066 1.43739513 5.04645067 2.87493863 5.0625 4.3125 C5.07410156 5.11300781 5.08570313 5.91351563 5.09765625 6.73828125 C5 9 5 9 4 12 C2.35 11.67 0.7 11.34 -1 11 C-2.23076923 4.6 -2.23076923 4.6 -1.0625 1.5625 C-0.711875 1.046875 -0.36125 0.53125 0 0 Z " fill="#F2F0DF" transform="translate(414,248)" />
<path d="M0 0 C6.6 0 13.2 0 20 0 C20 0.33 20 0.66 20 1 C16.37 1 12.74 1 9 1 C9 1.66 9 2.32 9 3 C9.66 3.33 10.32 3.66 11 4 C9.68 4.33 8.36 4.66 7 5 C6.8453125 6.175625 6.8453125 6.175625 6.6875 7.375 C6.460625 8.24125 6.23375 9.1075 6 10 C3 12 3 12 -0.6875 12.125 C-2.3271875 12.063125 -2.3271875 12.063125 -4 12 C-4.33 10.35 -4.66 8.7 -5 7 C-3.68 7.99 -2.36 8.98 -1 10 C-0.34 9.67 0.32 9.34 1 9 C1.65213292 6.97536745 1.65213292 6.97536745 2 5 C2.66 5 3.32 5 4 5 C4.33 4.34 4.66 3.68 5 3 C5.99 3 6.98 3 8 3 C8 2.34 8 1.68 8 1 C5.36 1 2.72 1 0 1 C0 0.67 0 0.34 0 0 Z " fill="#848076" transform="translate(483,245)" />
<path d="M0 0 C1.98 0.66 3.96 1.32 6 2 C6 4.97 6 7.94 6 11 C4.35 11.66 2.7 12.32 1 13 C-0.58593284 8.8369263 -1.31121486 5.46074638 -1 1 C-0.67 0.67 -0.34 0.34 0 0 Z " fill="#DCD9CB" transform="translate(427,248)" />
<path d="M0 0 C2.97 0 5.94 0 9 0 C8.67 2.64 8.34 5.28 8 8 C7.071875 8.12375 7.071875 8.12375 6.125 8.25 C5.42375 8.4975 4.7225 8.745 4 9 C2.71563266 10.9837767 2.71563266 10.9837767 2 13 C1.67 10.36 1.34 7.72 1 5 C0.34 4.67 -0.32 4.34 -1 4 C-0.67 2.68 -0.34 1.36 0 0 Z " fill="#B9B5A8" transform="translate(399,245)" />
<path d="M0 0 C0.89778361 2.69335083 1.56897081 5.1983103 2 8 C1.67 8.66 1.34 9.32 1 10 C1.99 10.33 2.98 10.66 4 11 C4 11.99 4 12.98 4 14 C0.37 14 -3.26 14 -7 14 C-7 13.01 -7 12.02 -7 11 C-6.01 10.34 -5.02 9.68 -4 9 C-2.77803891 6.82389333 -2.77803891 6.82389333 -1.8125 4.375 C-1.46832031 3.55773437 -1.12414062 2.74046875 -0.76953125 1.8984375 C-0.51558594 1.27195313 -0.26164062 0.64546875 0 0 Z " fill="#B9B8B1" transform="translate(328,249)" />
<path d="M0 0 C1.32 0.33 2.64 0.66 4 1 C3.34 4.3 2.68 7.6 2 11 C2.99 11.33 3.98 11.66 5 12 C3.75 13.5 3.75 13.5 2 15 C0.68 15 -0.64 15 -2 15 C-2.33 13.02 -2.66 11.04 -3 9 C-2.34 9 -1.68 9 -1 9 C-1.2784375 8.071875 -1.2784375 8.071875 -1.5625 7.125 C-1.706875 6.42375 -1.85125 5.7225 -2 5 C-1.67 4.34 -1.34 3.68 -1 3 C-1.66 2.67 -2.32 2.34 -3 2 C-2.01 2 -1.02 2 0 2 C0 1.34 0 0.68 0 0 Z " fill="#F8F2E3" transform="translate(271,208)" />
<path d="M0 0 C0.99 0 1.98 0 3 0 C2.67 2.64 2.34 5.28 2 8 C1.01 8.33 0.02 8.66 -1 9 C-1 9.99 -1 10.98 -1 12 C-2.32 12.33 -3.64 12.66 -5 13 C-6.26237731 10.47524538 -6.09856404 8.68799534 -6.0625 5.875 C-6.05347656 4.96492187 -6.04445312 4.05484375 -6.03515625 3.1171875 C-6.02355469 2.41851562 -6.01195312 1.71984375 -6 1 C-5.34 2.32 -4.68 3.64 -4 5 C-3.401875 4.175 -2.80375 3.35 -2.1875 2.5 C-1.465625 1.675 -0.74375 0.85 0 0 Z " fill="#D7D6CB" transform="translate(215,203)" />
<path d="M0 0 C2.64 0 5.28 0 8 0 C8 1.32 8 2.64 8 4 C7.34 4 6.68 4 6 4 C5.731875 4.7425 5.46375 5.485 5.1875 6.25 C4.05770579 8.86636554 2.79106798 10.80187111 1 13 C1 12.34 1 11.68 1 11 C0.01 10.67 -0.98 10.34 -2 10 C-1 8 -1 8 1 5 C0.6878236 2.35367713 0.6878236 2.35367713 0 0 Z " fill="#95928C" transform="translate(505,245)" />
<path d="M0 0 C2.1640625 0.3359375 2.1640625 0.3359375 4.7265625 2.3359375 C5.2009375 2.9959375 5.6753125 3.6559375 6.1640625 4.3359375 C4.8440625 4.3359375 3.5240625 4.3359375 2.1640625 4.3359375 C1.8340625 7.9659375 1.5040625 11.5959375 1.1640625 15.3359375 C0.5040625 15.0059375 -0.1559375 14.6759375 -0.8359375 14.3359375 C-0.8359375 11.3659375 -0.8359375 8.3959375 -0.8359375 5.3359375 C-1.8259375 5.3359375 -2.8159375 5.3359375 -3.8359375 5.3359375 C-4.8259375 6.8209375 -4.8259375 6.8209375 -5.8359375 8.3359375 C-6.1246875 7.7171875 -6.4134375 7.0984375 -6.7109375 6.4609375 C-7.77313792 4.20267985 -7.77313792 4.20267985 -9.8359375 2.3359375 C-6.2274807 -0.06970037 -4.21572458 -0.06866001 0 0 Z " fill="#AFABA1" transform="translate(424.8359375,244.6640625)" />
<path d="M0 0 C7.42857143 -0.14285714 7.42857143 -0.14285714 11 1 C10.75 3.375 10.75 3.375 10 6 C8.0625 7.1875 8.0625 7.1875 6 8 C5.34 8.66 4.68 9.32 4 10 C2.68 8.35 1.36 6.7 0 5 C0.33 4.01 0.66 3.02 1 2 C0.67 1.34 0.34 0.68 0 0 Z " fill="#DADAD2" transform="translate(204,185)" />
<path d="M0 0 C2.4375 1.0625 2.4375 1.0625 5 3 C5.8125 6.6875 5.8125 6.6875 6 10 C5.01 10 4.02 10 3 10 C2.34 9.34 1.68 8.68 1 8 C0.34 9.65 -0.32 11.3 -1 13 C-1.33 13 -1.66 13 -2 13 C-2.53266629 9.99653222 -2.96846324 7.05380927 -3 4 C-1.5625 1.4375 -1.5625 1.4375 0 0 Z " fill="#E9E4D8" transform="translate(464,247)" />
<path d="M0 0 C3.3 0 6.6 0 10 0 C8.68 0.33 7.36 0.66 6 1 C6 1.66 6 2.32 6 3 C6.66 3 7.32 3 8 3 C8.33 5.31 8.66 7.62 9 10 C8.01 10.33 7.02 10.66 6 11 C6 10.01 6 9.02 6 8 C5.01 8.33 4.02 8.66 3 9 C3 7.35 3 5.7 3 4 C1.68 3.67 0.36 3.34 -1 3 C-0.67 2.01 -0.34 1.02 0 0 Z " fill="#EBE4D6" transform="translate(384,236)" />
<path d="M0 0 C4.875 0.875 4.875 0.875 6 2 C6.04063832 3.66617115 6.042721 5.33388095 6 7 C3.69 7.33 1.38 7.66 -1 8 C-1.66 6.35 -2.32 4.7 -3 3 C-2.01 2.01 -1.02 1.02 0 0 Z " fill="#CCC7BF" transform="translate(402,236)" />
<path d="M0 0 C1.68608966 -0.07205511 3.37500659 -0.08386068 5.0625 -0.0625 C5.98160156 -0.05347656 6.90070313 -0.04445312 7.84765625 -0.03515625 C8.55792969 -0.02355469 9.26820313 -0.01195312 10 0 C9.6484375 1.890625 9.6484375 1.890625 9 4 C6.625 5.75 6.625 5.75 4 7 C3.01 7 2.02 7 1 7 C0.34 5.02 -0.32 3.04 -1 1 C-0.67 0.67 -0.34 0.34 0 0 Z " fill="#E4E3DD" transform="translate(222,191)" />
<path d="M0 0 C2.97 0 5.94 0 9 0 C9.1079859 2.43868168 9.18726589 4.87259133 9.25 7.3125 C9.30027344 8.34793945 9.30027344 8.34793945 9.3515625 9.40429688 C9.390625 11.42578125 9.390625 11.42578125 9 15 C6.984375 16.98046875 6.984375 16.98046875 5 18 C4.01 17.67 3.02 17.34 2 17 C2 16.01 2 15.02 2 14 C2.66 14 3.32 14 4 14 C4 13.34 4 12.68 4 12 C4.99 12 5.98 12 7 12 C7.33 8.37 7.66 4.74 8 1 C5.36 1 2.72 1 0 1 C0 0.67 0 0.34 0 0 Z " fill="#969389" transform="translate(350,245)" />
<path d="M0 0 C1.65 0.99 3.3 1.98 5 3 C4.525625 3.45375 4.05125 3.9075 3.5625 4.375 C1.90972192 5.93258204 1.90972192 5.93258204 1 8 C2.98 8 4.96 8 7 8 C7 8.33 7 8.66 7 9 C1.34605369 9.34615998 -2.03006806 8.43425238 -7 6 C-6.34 5.34 -5.68 4.68 -5 4 C-4.01 4 -3.02 4 -2 4 C-1.67 3.01 -1.34 2.02 -1 1 C-0.67 0.67 -0.34 0.34 0 0 Z " fill="#B9B1A6" transform="translate(424,215)" />
<path d="M0 0 C0.66 0 1.32 0 2 0 C2 0.99 2 1.98 2 3 C2.99 3 3.98 3 5 3 C4.67 4.65 4.34 6.3 4 8 C0.7 8.33 -2.6 8.66 -6 9 C-6 8.34 -6 7.68 -6 7 C-4.68 6.67 -3.36 6.34 -2 6 C-1.34 4.02 -0.68 2.04 0 0 Z " fill="#EDEBDD" transform="translate(399,214)" />
<path d="M0 0 C3.3 0 6.6 0 10 0 C10 0.66 10 1.32 10 2 C9.01 2 8.02 2 7 2 C6.67 2.99 6.34 3.98 6 5 C5.34 5 4.68 5 4 5 C4 6.65 4 8.3 4 10 C2.68 9.67 1.36 9.34 0 9 C0.185625 7.88625 0.37125 6.7725 0.5625 5.625 C1.31680657 2.17431139 1.31680657 2.17431139 0 0 Z " fill="#F7F2E6" transform="translate(481,246)" />
<path d="M0 0 C0.7734375 -0.01417969 1.546875 -0.02835938 2.34375 -0.04296875 C4.5 0.1875 4.5 0.1875 7.5 2.1875 C6.84 3.5075 6.18 4.8275 5.5 6.1875 C4.943125 5.878125 4.38625 5.56875 3.8125 5.25 C1.32152877 4.10549971 -0.78105917 3.5273676 -3.5 3.1875 C-5.73167185 3.55606864 -5.73167185 3.55606864 -7.5 4.1875 C-7.5 3.1975 -7.5 2.2075 -7.5 1.1875 C-4.71398777 0.25882926 -2.88933911 0.02407783 0 0 Z " fill="#FBF8EE" transform="translate(458.5,196.8125)" />
<path d="M0 0 C0.33 0 0.66 0 1 0 C1.33 2.97 1.66 5.94 2 9 C1.34 9 0.68 9 0 9 C0 9.66 0 10.32 0 11 C-2.86724686 10.42655063 -3.8614515 10.1385485 -6 8 C-5.67 6.68 -5.34 5.36 -5 4 C-3.68 3.67 -2.36 3.34 -1 3 C-0.67 2.01 -0.34 1.02 0 0 Z " fill="#F2EEDE" transform="translate(455,251)" />
<path d="M0 0 C0.66 0.66 1.32 1.32 2 2 C1.34 2 0.68 2 0 2 C0.33 2.99 0.66 3.98 1 5 C0.67 5.99 0.34 6.98 0 8 C0.66 8 1.32 8 2 8 C2 8.66 2 9.32 2 10 C1.34 10 0.68 10 0 10 C-0.66 11.32 -1.32 12.64 -2 14 C-2.66 13.34 -3.32 12.68 -4 12 C-4.33870968 5.67741935 -4.33870968 5.67741935 -3 3 C-2.34 3 -1.68 3 -1 3 C-0.67 2.01 -0.34 1.02 0 0 Z " fill="#F7F2E4" transform="translate(418,201)" />
<path d="M0 0 C3.3470627 -0.24793057 6.07166815 -0.33523094 9.25 0.8125 C11.07008115 2.04755507 12.52225183 3.37447701 14 5 C13.67 5.99 13.34 6.98 13 8 C13 7.34 13 6.68 13 6 C11.02 6 9.04 6 7 6 C6.34 5.01 5.68 4.02 5 3 C1.43230448 2.26393501 1.43230448 2.26393501 -2 2 C-1.34 1.34 -0.68 0.68 0 0 Z " fill="#C9C4B9" transform="translate(359,196)" />
<path d="M0 0 C2.5 1.8125 2.5 1.8125 5 4 C5 4.99 5 5.98 5 7 C1.49223216 8.60355101 -1.14354879 9.22036864 -5 9 C-5 8.01 -5 7.02 -5 6 C-4.360625 5.7525 -3.72125 5.505 -3.0625 5.25 C-2.381875 4.8375 -1.70125 4.425 -1 4 C-0.19471111 1.94999129 -0.19471111 1.94999129 0 0 Z " fill="#BCBDB9" transform="translate(243,215)" />
<path d="M0 0 C0.66 0.33 1.32 0.66 2 1 C1.42341728 4.89193339 -0.4999525 7.04539841 -3 10 C-3.99 11.485 -3.99 11.485 -5 13 C-5 12.34 -5 11.68 -5 11 C-5.66 11 -6.32 11 -7 11 C-6.690625 10.236875 -6.38125 9.47375 -6.0625 8.6875 C-5.32106407 6.81210323 -4.63771783 4.91315348 -4 3 C-1.9375 1.3125 -1.9375 1.3125 0 0 Z " fill="#D0CFC9" transform="translate(184,152)" />
<path d="M0 0 C2.97 0.495 2.97 0.495 6 1 C6.042721 2.66611905 6.04063832 4.33382885 6 6 C5.67 6.33 5.34 6.66 5 7 C3.00041636 7.04080783 0.99954746 7.04254356 -1 7 C-1.66 6.01 -2.32 5.02 -3 4 C-2.34 3.67 -1.68 3.34 -1 3 C-0.67 2.01 -0.34 1.02 0 0 Z " fill="#D2CEC1" transform="translate(329,187)" />
<path d="M0 0 C1.65 0.33 3.3 0.66 5 1 C5.33 2.65 5.66 4.3 6 6 C4.35 6 2.7 6 1 6 C0.67 6.99 0.34 7.98 0 9 C-0.66 9 -1.32 9 -2 9 C-2.125 5.625 -2.125 5.625 -2 2 C-1.34 1.34 -0.68 0.68 0 0 Z " fill="#D7D2C5" transform="translate(281,197)" />
<path d="M0 0 C2.31 0.66 4.62 1.32 7 2 C7 3.65 7 5.3 7 7 C4.36 7 1.72 7 -1 7 C-0.67 4.69 -0.34 2.38 0 0 Z " fill="#F7F2E1" transform="translate(447,211)" />
<path d="M0 0 C2.68839385 -0.26991906 5.29141936 -0.08737357 8 0 C4.56638098 3.63559661 1.2026393 6.36113346 -3 9 C-2.7397104 6.65739357 -2.40047444 4.32275177 -2 2 C-1.34 1.34 -0.68 0.68 0 0 Z " fill="#B7B6B0" transform="translate(225,250)" />
<path d="M0 0 C0.99 0.33 1.98 0.66 3 1 C3.39171753 2.65391846 3.72057545 4.32345271 4 6 C3.67 6.66 3.34 7.32 3 8 C0.36 8 -2.28 8 -5 8 C-5 7.34 -5 6.68 -5 6 C-3.35 6 -1.7 6 0 6 C-0.33 4.35 -0.66 2.7 -1 1 C-0.67 0.67 -0.34 0.34 0 0 Z " fill="#F9F3E7" transform="translate(430,201)" />
<path d="M0 0 C-0.875 4.75 -0.875 4.75 -2 7 C-2.66 7 -3.32 7 -4 7 C-4.33 7.66 -4.66 8.32 -5 9 C-6.25664978 6.09399739 -7 4.20395416 -7 1 C-4 0 -4 0 0 0 Z " fill="#F6F0DE" transform="translate(307,198)" />
<path d="M0 0 C3.96 0 7.92 0 12 0 C12 0.99 12 1.98 12 3 C11.278125 2.979375 10.55625 2.95875 9.8125 2.9375 C7.00141177 2.91411357 7.00141177 2.91411357 4.3125 3.5625 C3.549375 3.706875 2.78625 3.85125 2 4 C1.34 3.67 0.68 3.34 0 3 C0 2.01 0 1.02 0 0 Z " fill="#CDCBC0" transform="translate(376,184)" />
<path d="M0 0 C0.33 0.66 0.66 1.32 1 2 C3.52733235 2.65555119 3.52733235 2.65555119 6 3 C6 2.34 6 1.68 6 1 C6.66 1 7.32 1 8 1 C7.40075776 5.19469571 6.42500059 9.00999834 5 13 C4.67 13 4.34 13 4 13 C3.67 9.7 3.34 6.4 3 3 C2.01 3 1.02 3 0 3 C0 2.01 0 1.02 0 0 Z " fill="#E3DFD1" transform="translate(360,246)" />
<path d="M0 0 C0.99 0.495 0.99 0.495 2 1 C2.72693904 2.97888961 3.39816251 4.97954558 4 7 C5.32 7.33 6.64 7.66 8 8 C7.34 10.97 6.68 13.94 6 17 C4.33243414 14.49865121 3.41532575 12.64977254 2.4375 9.875 C1.59545521 7.20335092 1.59545521 7.20335092 0 5 C-0.04063832 3.33382885 -0.042721 1.66611905 0 0 Z " fill="#C3C1BC" transform="translate(161,222)" />
<path d="M0 0 C0.66 0 1.32 0 2 0 C2.66 1.32 3.32 2.64 4 4 C3.67 4.33 3.34 4.66 3 5 C2.91251793 6.92667507 2.89302666 8.85651861 2.90234375 10.78515625 C2.90556641 11.95498047 2.90878906 13.12480469 2.91210938 14.33007812 C2.92048828 15.56177734 2.92886719 16.79347656 2.9375 18.0625 C2.94201172 19.29806641 2.94652344 20.53363281 2.95117188 21.80664062 C2.96300392 24.87114117 2.97948827 27.93554721 3 31 C2.34 31.33 1.68 31.66 1 32 C0.67 21.44 0.34 10.88 0 0 Z " fill="#FDF9EE" transform="translate(345,187)" />
<path d="M0 0 C1.32 0.66 2.64 1.32 4 2 C-1.75 6 -1.75 6 -4 6 C-4 11.28 -4 16.56 -4 22 C-4.33 22 -4.66 22 -5 22 C-5 16.39 -5 10.78 -5 5 C-6.32 4.67 -7.64 4.34 -9 4 C-7.88625 3.896875 -6.7725 3.79375 -5.625 3.6875 C-4.42875 3.460625 -3.2325 3.23375 -2 3 C-1.34 2.01 -0.68 1.02 0 0 Z " fill="#837E70" transform="translate(501,197)" />
<path d="M0 0 C1.65 0.33 3.3 0.66 5 1 C5 1.99 5 2.98 5 4 C1.86501708 5.85776765 -0.37471432 6.20140476 -4 6 C-4.66 4.68 -5.32 3.36 -6 2 C-2.125 2.875 -2.125 2.875 -1 4 C-0.67 2.68 -0.34 1.36 0 0 Z " fill="#CCC9BE" transform="translate(287,218)" />
<path d="M0 0 C1.32 0.33 2.64 0.66 4 1 C3.67 3.97 3.34 6.94 3 10 C2.01 9.34 1.02 8.68 0 8 C0 5.36 0 2.72 0 0 Z M4 3 C5.32 3.33 6.64 3.66 8 4 C7.34 4.66 6.68 5.32 6 6 C6 5.34 6 4.68 6 4 C5.34 3.67 4.68 3.34 4 3 Z " fill="#BFBCB3" transform="translate(374,251)" />
<path d="M0 0 C1.32 0.66 2.64 1.32 4 2 C3.835 2.556875 3.67 3.11375 3.5 3.6875 C2.95958649 6.18691249 2.92917935 8.45045662 3 11 C2.01 11.33 1.02 11.66 0 12 C-0.19401633 10.18818595 -0.38004375 8.37551468 -0.5625 6.5625 C-0.66691406 5.55316406 -0.77132813 4.54382813 -0.87890625 3.50390625 C-0.91886719 2.67761719 -0.95882813 1.85132813 -1 1 C-0.67 0.67 -0.34 0.34 0 0 Z " fill="#BFBDB2" transform="translate(473,247)" />
<path d="M0 0 C1.65 0 3.3 0 5 0 C5 2.64 5 5.28 5 8 C4.67 7.01 4.34 6.02 4 5 C3.34 5 2.68 5 2 5 C1.67 5.66 1.34 6.32 1 7 C1 6.34 1 5.68 1 5 C0.01 4.67 -0.98 4.34 -2 4 C-1.34 2.68 -0.68 1.36 0 0 Z " fill="#E6E3D4" transform="translate(414,248)" />
<path d="M0 0 C0.33 0 0.66 0 1 0 C1 4.29 1 8.58 1 13 C0.01 12.34 -0.98 11.68 -2 11 C-2.78561862 8.21462489 -3 5.8996083 -3 3 C-3.99 2.34 -4.98 1.68 -6 1 C-4.7934375 1.0309375 -4.7934375 1.0309375 -3.5625 1.0625 C-2.716875 1.041875 -1.87125 1.02125 -1 1 C-0.67 0.67 -0.34 0.34 0 0 Z " fill="#F7F2E4" transform="translate(354,184)" />
<path d="M0 0 C-0.66 0.66 -1.32 1.32 -2 2 C-3.65 1.67 -5.3 1.34 -7 1 C-7.33 2.32 -7.66 3.64 -8 5 C-8 4.34 -8 3.68 -8 3 C-8.61875 3.185625 -9.2375 3.37125 -9.875 3.5625 C-10.926875 3.7790625 -10.926875 3.7790625 -12 4 C-12.66 3.67 -13.32 3.34 -14 3 C-14 2.01 -14 1.02 -14 0 C-12.04235617 -0.19456705 -10.08384679 -0.38044247 -8.125 -0.5625 C-6.48917969 -0.71912109 -6.48917969 -0.71912109 -4.8203125 -0.87890625 C-2 -1 -2 -1 0 0 Z " fill="#C0BEB5" transform="translate(355,184)" />
<path d="M0 0 C0.33 0.66 0.66 1.32 1 2 C1.78375 1.814375 2.5675 1.62875 3.375 1.4375 C4.674375 1.2209375 4.674375 1.2209375 6 1 C6.66 1.33 7.32 1.66 8 2 C8 3.32 8 4.64 8 6 C5.69 6 3.38 6 1 6 C0.67 4.02 0.34 2.04 0 0 Z " fill="#DEDBCF" transform="translate(446,201)" />
<path d="M0 0 C1.32 0 2.64 0 4 0 C4 0.66 4 1.32 4 2 C4.66 2.33 5.32 2.66 6 3 C6 3.99 6 4.98 6 6 C4.02 6 2.04 6 0 6 C0 4.02 0 2.04 0 0 Z " fill="#ECEADE" transform="translate(493,264)" />
<path d="M0 0 C0.268125 0.639375 0.53625 1.27875 0.8125 1.9375 C1.204375 2.618125 1.59625 3.29875 2 4 C2.99 4.33 3.98 4.66 5 5 C5 5.66 5 6.32 5 7 C3.68 6.67 2.36 6.34 1 6 C0.67 6.66 0.34 7.32 0 8 C0.66 8.33 1.32 8.66 2 9 C-0.3125 8.75 -0.3125 8.75 -3 8 C-4.8125 5.9375 -4.8125 5.9375 -6 4 C-3.525 4.495 -3.525 4.495 -1 5 C-0.67 3.35 -0.34 1.7 0 0 Z " fill="#99978E" transform="translate(419,255)" />
<path d="M0 0 C0 3 0 3 -1 6 C-2.32 6 -3.64 6 -5 6 C-5.33 7.98 -5.66 9.96 -6 12 C-6.33 12 -6.66 12 -7 12 C-7.34730339 6.70362331 -7.34730339 6.70362331 -7 4 C-4.75416099 1.59927554 -3.12739447 1.04246482 0 0 Z " fill="#A09E94" transform="translate(270,208)" />
<path d="M0 0 C2.31 0 4.62 0 7 0 C7.33 1.65 7.66 3.3 8 5 C5.36 4.67 2.72 4.34 0 4 C0 2.68 0 1.36 0 0 Z " fill="#F4F0E0" transform="translate(479,259)" />
<path d="M0 0 C2.64 0 5.28 0 8 0 C8 1.32 8 2.64 8 4 C6.35 4.33 4.7 4.66 3 5 C3 4.34 3 3.68 3 3 C2.01 3 1.02 3 0 3 C0 2.01 0 1.02 0 0 Z " fill="#B2B0A8" transform="translate(505,245)" />
<path d="M0 0 C0.8971875 0.2784375 0.8971875 0.2784375 1.8125 0.5625 C1.4825 1.8825 1.1525 3.2025 0.8125 4.5625 C0.1525 4.5625 -0.5075 4.5625 -1.1875 4.5625 C-1.5175 5.2225 -1.8475 5.8825 -2.1875 6.5625 C-2.1875 5.9025 -2.1875 5.2425 -2.1875 4.5625 C-4.6625 3.5725 -4.6625 3.5725 -7.1875 2.5625 C-4.81457201 0.18957201 -3.36064586 -0.67212917 0 0 Z " fill="#E0DBCE" transform="translate(454.1875,208.4375)" />
<path d="M0 0 C2.64 0.33 5.28 0.66 8 1 C8.33 2.65 8.66 4.3 9 6 C8.01 6 7.02 6 6 6 C6 5.34 6 4.68 6 4 C4.02 4 2.04 4 0 4 C0 2.68 0 1.36 0 0 Z " fill="#F7F1E2" transform="translate(364,201)" />
<path d="M0 0 C2.61328125 -0.10546875 2.61328125 -0.10546875 5 0 C4.04663979 1.31611677 3.08714226 2.62778961 2.125 3.9375 C1.59132812 4.66839844 1.05765625 5.39929688 0.5078125 6.15234375 C-1 8 -1 8 -3 9 C-3.24535485 6.05574183 -3.17577792 4.34230436 -1.8125 1.6875 C-1.214375 1.130625 -0.61625 0.57375 0 0 Z " fill="#D1D1CA" transform="translate(227,268)" />
<path d="M0 0 C1 3 1 3 0.5625 5.1875 C0.376875 5.785625 0.19125 6.38375 0 7 C0.639375 7.12375 1.27875 7.2475 1.9375 7.375 C2.618125 7.58125 3.29875 7.7875 4 8 C4.33 8.66 4.66 9.32 5 10 C2.69 10 0.38 10 -2 10 C-2.33 9.01 -2.66 8.02 -3 7 C-2.07796291 4.63477442 -1.08301035 2.29598193 0 0 Z " fill="#E1DDD3" transform="translate(331,245)" />
<path d="M0 0 C2.29160319 -0.02692484 4.58329546 -0.04636124 6.875 -0.0625 C8.15117187 -0.07410156 9.42734375 -0.08570313 10.7421875 -0.09765625 C14 0 14 0 16 1 C16.625 3.0625 16.625 3.0625 17 5 C16.01 5.66 15.02 6.32 14 7 C14 6.34 14 5.68 14 5 C13.34 4.67 12.68 4.34 12 4 C12.33 3.01 12.66 2.02 13 1 C8.71 1 4.42 1 0 1 C0 0.67 0 0.34 0 0 Z " fill="#88857B" transform="translate(294,197)" />
<path d="M0 0 C0.33 0.99 0.66 1.98 1 3 C-0.65 3.33 -2.3 3.66 -4 4 C-4 4.66 -4 5.32 -4 6 C-0.535 5.505 -0.535 5.505 3 5 C2.67 5.66 2.34 6.32 2 7 C-5.75 7.125 -5.75 7.125 -8 6 C-7.67 5.01 -7.34 4.02 -7 3 C-5.5459375 2.814375 -5.5459375 2.814375 -4.0625 2.625 C-2.5465625 2.315625 -2.5465625 2.315625 -1 2 C-0.67 1.34 -0.34 0.68 0 0 Z " fill="#A8A69A" transform="translate(397,217)" />
<path d="M0 0 C1.98 0 3.96 0 6 0 C6.33 1.32 6.66 2.64 7 4 C6.34 4 5.68 4 5 4 C5.33 4.99 5.66 5.98 6 7 C4.35 7.66 2.7 8.32 1 9 C1.66 6.36 2.32 3.72 3 1 C2.01 1.33 1.02 1.66 0 2 C0 1.34 0 0.68 0 0 Z " fill="#FBF9ED" transform="translate(201,139)" />
<path d="M0 0 C0.33 0.66 0.66 1.32 1 2 C2.65 2 4.3 2 6 2 C6 2.33 6 2.66 6 3 C5.40832031 3.12117188 4.81664062 3.24234375 4.20703125 3.3671875 C-0.03803585 4.26744643 -4.02439661 5.20456621 -8 7 C-8 6.01 -8 5.02 -8 4 C-5.33333333 2.66666667 -2.66666667 1.33333333 0 0 Z " fill="#B7B6B2" transform="translate(183,120)" />
<path d="M0 0 C0.66 0.33 1.32 0.66 2 1 C1.67 1.66 1.34 2.32 1 3 C2.258125 2.855625 3.51625 2.71125 4.8125 2.5625 C5.52019531 2.48128906 6.22789062 2.40007812 6.95703125 2.31640625 C9.19396393 2.02829265 9.19396393 2.02829265 12 1 C12 1.99 12 2.98 12 4 C7.38 4.33 2.76 4.66 -2 5 C-1.34 3.35 -0.68 1.7 0 0 Z " fill="#78766F" transform="translate(385,259)" />
<path d="M0 0 C2.97 0.33 5.94 0.66 9 1 C9 1.33 9 1.66 9 2 C6.69 2 4.38 2 2 2 C2 3.32 2 4.64 2 6 C3.65 6 5.3 6 7 6 C7 6.33 7 6.66 7 7 C4.69 7.66 2.38 8.32 0 9 C-1.125 3.375 -1.125 3.375 0 0 Z " fill="#AEAA9D" transform="translate(477,257)" />
<path d="M0 0 C3.3 0 6.6 0 10 0 C8.02 0.99 8.02 0.99 6 2 C4.73195434 4.0335948 4.73195434 4.0335948 4 6 C4 5.34 4 4.68 4 4 C2.35 3.67 0.7 3.34 -1 3 C-0.67 2.01 -0.34 1.02 0 0 Z " fill="#ABA99E" transform="translate(384,236)" />
<path d="M0 0 C2.31 0 4.62 0 7 0 C6.67 1.65 6.34 3.3 6 5 C4.35 5 2.7 5 1 5 C0.67 3.35 0.34 1.7 0 0 Z " fill="#CBCBC8" transform="translate(208,186)" />
<path d="M0 0 C2 1.1875 2 1.1875 4 3 C4.25 5.6875 4.25 5.6875 4 8 C2.35 8 0.7 8 -1 8 C-0.67 5.36 -0.34 2.72 0 0 Z " fill="#F7F6F0" transform="translate(249,163)" />
<path d="M0 0 C0.89130413 2.6739124 1.47731534 5.23723823 2 8 C1.01 8.99 0.02 9.98 -1 11 C-1 10.34 -1 9.68 -1 9 C-1.66 9 -2.32 9 -3 9 C-2.44271087 5.65626525 -1.64826111 2.96687001 0 0 Z " fill="#A09D97" transform="translate(328,249)" />
<path d="M0 0 C0.77321882 2.98241547 1.41196203 5.97580475 2 9 C1.01 9.99 0.02 10.98 -1 12 C-1 10.68 -1 9.36 -1 8 C-1.66 8.66 -2.32 9.32 -3 10 C-2.69201674 8.51988629 -2.378482 7.04092675 -2.0625 5.5625 C-1.80146484 4.32693359 -1.80146484 4.32693359 -1.53515625 3.06640625 C-1 1 -1 1 0 0 Z " fill="#A09C94" transform="translate(332,239)" />
<path d="M0 0 C0.33 0 0.66 0 1 0 C1 3.63 1 7.26 1 11 C0.34 11 -0.32 11 -1 11 C-1.33 11.66 -1.66 12.32 -2 13 C-2.89167041 10.4060497 -3.15423223 8.54181583 -2.3984375 5.88671875 C-1.64388685 3.90161588 -0.85393475 1.94426951 0 0 Z " fill="#99958C" transform="translate(408,204)" />
<path d="M0 0 C0.33 0 0.66 0 1 0 C1.66 2.64 2.32 5.28 3 8 C0.36 8 -2.28 8 -5 8 C-4.67 7.01 -4.34 6.02 -4 5 C-3.01 4.67 -2.02 4.34 -1 4 C-0.67 2.68 -0.34 1.36 0 0 Z " fill="#CFCABD" transform="translate(340,244)" />
<path d="M0 0 C2.64 0 5.28 0 8 0 C8.33 1.32 8.66 2.64 9 4 C7 4 5 4 3 4 C3 3.34 3 2.68 3 2 C2.01 2 1.02 2 0 2 C0 1.34 0 0.68 0 0 Z " fill="#F9F7E9" transform="translate(492,246)" />
<path d="M0 0 C1.32 0.33 2.64 0.66 4 1 C3.34 2.65 2.68 4.3 2 6 C0.68 5.67 -0.64 5.34 -2 5 C-1.67 4.34 -1.34 3.68 -1 3 C-1.66 2.67 -2.32 2.34 -3 2 C-2.01 2 -1.02 2 0 2 C0 1.34 0 0.68 0 0 Z " fill="#F0EBDD" transform="translate(271,208)" />
<path d="M0 0 C0.66 0.33 1.32 0.66 2 1 C2 3.64 2 6.28 2 9 C-0.31 8.67 -2.62 8.34 -5 8 C-5 7.34 -5 6.68 -5 6 C-3.02 5.67 -1.04 5.34 1 5 C0.67 3.35 0.34 1.7 0 0 Z " fill="#C9C4B9" transform="translate(438,201)" />
<path d="M0 0 C0.99 0.33 1.98 0.66 3 1 C4.60725635 4.21451269 4.05748185 7.43612536 4 11 C3.34 10.67 2.68 10.34 2 10 C2.33 8.35 2.66 6.7 3 5 C2.01 5 1.02 5 0 5 C-0.66 3.68 -1.32 2.36 -2 1 C-1.34 0.67 -0.68 0.34 0 0 Z " fill="#827F76" transform="translate(275,206)" />
<path d="M0 0 C0.66 0.33 1.32 0.66 2 1 C2 3.31 2 5.62 2 8 C2.99 8.33 3.98 8.66 5 9 C2.525 10.485 2.525 10.485 0 12 C-0.19401633 10.18818595 -0.38004375 8.37551468 -0.5625 6.5625 C-0.66691406 5.55316406 -0.77132813 4.54382813 -0.87890625 3.50390625 C-0.91886719 2.67761719 -0.95882813 1.85132813 -1 1 C-0.67 0.67 -0.34 0.34 0 0 Z " fill="#F6F2E4" transform="translate(399,201)" />
<path d="M0 0 C-0.33 1.32 -0.66 2.64 -1 4 C-3.31 4 -5.62 4 -8 4 C-7.67 3.01 -7.34 2.02 -7 1 C-4.53721199 -0.231394 -2.7204945 -0.07159196 0 0 Z " fill="#F7F4E9" transform="translate(399,197)" />
<path d="M0 0 C-0.33 2.97 -0.66 5.94 -1 9 C-1.33 7.68 -1.66 6.36 -2 5 C-2.99 5 -3.98 5 -5 5 C-5 3.68 -5 2.36 -5 1 C-3 0 -3 0 0 0 Z " fill="#CCCBC3" transform="translate(151,153)" />
<path d="M0 0 C0.66 0 1.32 0 2 0 C2.33 1.32 2.66 2.64 3 4 C0.03 5.98 0.03 5.98 -3 8 C-3.33 6.35 -3.66 4.7 -4 3 C-2.69855198 1.95884159 -1.36161311 0.96113866 0 0 Z " fill="#C4C3BB" transform="translate(165,129)" />
<path d="M0 0 C1.32 0.33 2.64 0.66 4 1 C3.67 1.99 3.34 2.98 3 4 C7.455 3.505 7.455 3.505 12 3 C11.34 3.66 10.68 4.32 10 5 C7.1368808 5.23089671 4.80354752 5.38230193 2 5 C-0.5 3.5 -0.5 3.5 -2 2 C-1.34 2 -0.68 2 0 2 C0 1.34 0 0.68 0 0 Z " fill="#9E9C8E" transform="translate(354,219)" />
<path d="M0 0 C0.66 0.33 1.32 0.66 2 1 C1.01 2.485 1.01 2.485 0 4 C0.30840599 6.15274948 0.30840599 6.15274948 1 8 C-0.32 8 -1.64 8 -3 8 C-3.1875 5.6875 -3.1875 5.6875 -3 3 C-1.5 1.1875 -1.5 1.1875 0 0 Z " fill="#C3C0B6" transform="translate(267,198)" />
<path d="M0 0 C1.32 0.33 2.64 0.66 4 1 C3.01 1 2.02 1 1 1 C1 3.31 1 5.62 1 8 C0.01 7.67 -0.98 7.34 -2 7 C-2.33 5.68 -2.66 4.36 -3 3 C-2.01 2.01 -1.02 1.02 0 0 Z " fill="#989188" transform="translate(402,236)" />
<path d="M0 0 C1.32 0.66 2.64 1.32 4 2 C3.34 3.32 2.68 4.64 2 6 C0.68 5.34 -0.64 4.68 -2 4 C-1.34 2.68 -0.68 1.36 0 0 Z " fill="#F5F0E1" transform="translate(462,197)" />
<path d="M0 0 C1.65 0.33 3.3 0.66 5 1 C4.67 1.99 4.34 2.98 4 4 C1.36 4.33 -1.28 4.66 -4 5 C-4 4.34 -4 3.68 -4 3 C-3.01 2.67 -2.02 2.34 -1 2 C-0.67 1.34 -0.34 0.68 0 0 Z " fill="#EEEBDC" transform="translate(498,217)" />
<path d="M0 0 C-0.33 1.32 -0.66 2.64 -1 4 C-2.98 4 -4.96 4 -7 4 C-7 3.34 -7 2.68 -7 2 C-4 0 -4 0 0 0 Z " fill="#C3C3B8" transform="translate(362,260)" />
<path d="M0 0 C2.475 0.99 2.475 0.99 5 2 C5 2.99 5 3.98 5 5 C3.02 5 1.04 5 -1 5 C-0.67 3.35 -0.34 1.7 0 0 Z " fill="#F6F1E6" transform="translate(426,218)" />
<path d="M0 0 C0 0.66 0 1.32 0 2 C0.66 2.66 1.32 3.32 2 4 C0.02 4.99 -1.96 5.98 -4 7 C-4 5.02 -4 3.04 -4 1 C-2 0 -2 0 0 0 Z " fill="#A5A199" transform="translate(459,206)" />
<path d="M0 0 C0.99 0.33 1.98 0.66 3 1 C3.33 3.31 3.66 5.62 4 8 C3.01 8.495 3.01 8.495 2 9 C1.22678118 6.01758453 0.58803797 3.02419525 0 0 Z " fill="#949289" transform="translate(317,197)" />
<path d="M0 0 C0.99 0.33 1.98 0.66 3 1 C3 3.31 3 5.62 3 8 C2.34 8 1.68 8 1 8 C0.01 6.35 -0.98 4.7 -2 3 C-1.34 2.01 -0.68 1.02 0 0 Z " fill="#D1CDBB" transform="translate(362,198)" />
<path d="M0 0 C2.97 0.495 2.97 0.495 6 1 C5.01 2.485 5.01 2.485 4 4 C2.35 3.67 0.7 3.34 -1 3 C-0.67 2.01 -0.34 1.02 0 0 Z " fill="#EAE7E2" transform="translate(323,197)" />
<path d="M0 0 C2.12046792 3.53411321 2.53199289 6.94393835 3 11 C0.47411298 8.63707344 -0.88820837 7.33537489 -2 4 C-1.34 4 -0.68 4 0 4 C0 2.68 0 1.36 0 0 Z " fill="#C1C0BB" transform="translate(257,147)" />
<path d="M0 0 C0.33 0.66 0.66 1.32 1 2 C-0.1875 4.4375 -0.1875 4.4375 -2 7 C-4.6875 7.8125 -4.6875 7.8125 -7 8 C-6.34 7.01 -5.68 6.02 -5 5 C-4.34 5 -3.68 5 -3 5 C-2.690625 4.360625 -2.38125 3.72125 -2.0625 3.0625 C-1 1 -1 1 0 0 Z " fill="#92928D" transform="translate(158,122)" />
<path d="M0 0 C0.99 0.99 1.98 1.98 3 3 C2.34 4.65 1.68 6.3 1 8 C0.34 7.67 -0.32 7.34 -1 7 C-1.72159424 5.35636866 -2.39351421 3.68949614 -3 2 C-2.01 2.33 -1.02 2.66 0 3 C0 2.01 0 1.02 0 0 Z " fill="#88867B" transform="translate(500,262)" />
<path d="M0 0 C0 0.33 0 0.66 0 1 C-3.96 1 -7.92 1 -12 1 C-11.67 0.34 -11.34 -0.32 -11 -1 C-7.12753111 -2.78729333 -3.86196582 -1.26256575 0 0 Z " fill="#F7F5E9" transform="translate(349,261)" />
<path d="M0 0 C2.33297433 -0.04092937 4.66705225 -0.04241723 7 0 C7 0.99 7 1.98 7 3 C5.02 3.99 5.02 3.99 3 5 C2.34 4.01 1.68 3.02 1 2 C0.34 1.67 -0.32 1.34 -1 1 C-0.67 0.67 -0.34 0.34 0 0 Z " fill="#93948C" transform="translate(476,245)" />
<path d="M0 0 C0.66 0.33 1.32 0.66 2 1 C2.72693904 2.97888961 3.39816251 4.97954558 4 7 C2.02 7 0.04 7 -2 7 C-1.34 6.67 -0.68 6.34 0 6 C-0.66 4.35 -1.32 2.7 -2 1 C-1.34 0.67 -0.68 0.34 0 0 Z " fill="#E6E1D2" transform="translate(268,200)" />
<path d="M0 0 C0.66 0 1.32 0 2 0 C1.25 1.875 1.25 1.875 0 4 C-2.125 5.25 -2.125 5.25 -4 6 C-4 6.66 -4 7.32 -4 8 C-4.66 7.67 -5.32 7.34 -6 7 C-5.04882866 5.8274869 -4.08882991 4.66212985 -3.125 3.5 C-2.59132812 2.8503125 -2.05765625 2.200625 -1.5078125 1.53125 C-0.76144531 0.77328125 -0.76144531 0.77328125 0 0 Z " fill="#A4A39E" transform="translate(236,196)" />
<path d="M0 0 C0.763125 0.04125 1.52625 0.0825 2.3125 0.125 C2.3125 0.785 2.3125 1.445 2.3125 2.125 C0.3325 2.785 -1.6475 3.445 -3.6875 4.125 C-4.3475 3.465 -5.0075 2.805 -5.6875 2.125 C-2.6875 0.125 -2.6875 0.125 0 0 Z " fill="#F8F4E9" transform="translate(404.6875,244.875)" />
<path d="M0 0 C-0.33 1.32 -0.66 2.64 -1 4 C-2.65 4 -4.3 4 -6 4 C-6 3.01 -6 2.02 -6 1 C-3.92446352 0.4465236 -2.15634036 0 0 0 Z " fill="#B9B9B5" transform="translate(244,220)" />
<path d="M0 0 C1.65 0.33 3.3 0.66 5 1 C4.01 1.495 4.01 1.495 3 2 C2.34 1.67 1.68 1.34 1 1 C1 2.65 1 4.3 1 6 C0.01 6.495 0.01 6.495 -1 7 C-1.33 5.35 -1.66 3.7 -2 2 C-1.34 1.34 -0.68 0.68 0 0 Z " fill="#908C7E" transform="translate(455,199)" />
<path d="M0 0 C1.98 0.495 1.98 0.495 4 1 C2.35 2.65 0.7 4.3 -1 6 C-1.042721 4.33388095 -1.04063832 2.66617115 -1 1 C-0.67 0.67 -0.34 0.34 0 0 Z " fill="#FBFAF1" transform="translate(211,203)" />
<path d="M0 0 C-0.33 0.99 -0.66 1.98 -1 3 C-3.875 3.125 -3.875 3.125 -7 3 C-7.66 2.34 -8.32 1.68 -9 1 C-6.04335481 -0.4783226 -3.25770263 -0.06032783 0 0 Z " fill="#999889" transform="translate(366,196)" />
<path d="M0 0 C0 0.33 0 0.66 0 1 C-0.969375 1.12375 -1.93875 1.2475 -2.9375 1.375 C-3.948125 1.58125 -4.95875 1.7875 -6 2 C-6.33 2.66 -6.66 3.32 -7 4 C-9.0625 4.625 -9.0625 4.625 -11 5 C-10.03558469 2.58896173 -9.31202953 1.22595242 -7.1875 -0.3125 C-4.45808824 -1.17031512 -2.72321308 -0.75644808 0 0 Z " fill="#BEBAB8" transform="translate(228,190)" />
<path d="M0 0 C1.32 1.32 2.64 2.64 4 4 C3.67 5.65 3.34 7.3 3 9 C2.01 8.34 1.02 7.68 0 7 C0 4.69 0 2.38 0 0 Z " fill="#969694" transform="translate(180,181)" />
<path d="M0 0 C3.3 0 6.6 0 10 0 C9.67 0.66 9.34 1.32 9 2 C7.68 1.67 6.36 1.34 5 1 C5 1.66 5 2.32 5 3 C3.0625 2.625 3.0625 2.625 1 2 C0.67 1.34 0.34 0.68 0 0 Z " fill="#FBF8EE" transform="translate(481,246)" />
<path d="M0 0 C2.64 0 5.28 0 8 0 C7.67 1.32 7.34 2.64 7 4 C7 3.01 7 2.02 7 1 C6.34 1 5.68 1 5 1 C5 1.66 5 2.32 5 3 C3.35 2.67 1.7 2.34 0 2 C0 1.34 0 0.68 0 0 Z " fill="#FBF8EE" transform="translate(361,246)" />
<path d="M0 0 C2.64 0 5.28 0 8 0 C7.67 0.99 7.34 1.98 7 3 C4.69 2.67 2.38 2.34 0 2 C0 1.34 0 0.68 0 0 Z " fill="#FAF8ED" transform="translate(349,246)" />
<path d="M0 0 C0.66 1.32 1.32 2.64 2 4 C0.35 4.33 -1.3 4.66 -3 5 C-3.66 4.34 -4.32 3.68 -5 3 C-3.35 2.01 -1.7 1.02 0 0 Z " fill="#D7D4C7" transform="translate(317,203)" />
<path d="M0 0 C4.455 0.99 4.455 0.99 9 2 C9 2.33 9 2.66 9 3 C5.7 3 2.4 3 -1 3 C-0.67 2.01 -0.34 1.02 0 0 Z " fill="#F5F2E9" transform="translate(437,259)" />
<path d="M0 0 C1.98 0.66 3.96 1.32 6 2 C6 2.33 6 2.66 6 3 C3.03 3 0.06 3 -3 3 C-2.01 2.01 -1.02 1.02 0 0 Z " fill="#F8F5EB" transform="translate(403,259)" />
<path d="M0 0 C1.9451 2.91765 2.45276317 4.62537285 3 8 C2.01 7.67 1.02 7.34 0 7 C-0.38133299 5.0085944 -0.71325582 3.00720923 -1 1 C-0.67 0.67 -0.34 0.34 0 0 Z " fill="#BAB7AB" transform="translate(343,252)" />
<path d="M0 0 C1.32 0.33 2.64 0.66 4 1 C4 1.66 4 2.32 4 3 C4.99 3.33 5.98 3.66 7 4 C5.1875 5.0625 5.1875 5.0625 3 6 C2.01 5.67 1.02 5.34 0 5 C0 3.33333333 0 1.66666667 0 0 Z " fill="#B5B2A8" transform="translate(273,217)" />
<path d="M0 0 C2.31 0 4.62 0 7 0 C7.33 0.66 7.66 1.32 8 2 C7.01 2 6.02 2 5 2 C4.67 2.66 4.34 3.32 4 4 C4 3.34 4 2.68 4 2 C3.01 2.33 2.02 2.66 1 3 C0.67 2.01 0.34 1.02 0 0 Z " fill="#FBF7EC" transform="translate(274,197)" />
</svg>
